<?xml version="1.0" ?><svg id="Layer_1" style="enable-background:new 0 0 96 96;" version="1.1" viewBox="0 0 96 96" xml:space="preserve" xmlns="http://www.w3.org/2000/svg" xmlns:xlink="http://www.w3.org/1999/xlink"><style type="text/css">
	.st0{fill-rule:evenodd;clip-rule:evenodd;fill:#D2AB67;}
	.st1{fill-rule:evenodd;clip-rule:evenodd;fill:#7E8083;}
	.st2{fill-rule:evenodd;clip-rule:evenodd;fill:#8ED8F8;}
	.st3{fill-rule:evenodd;clip-rule:evenodd;fill:#D1D3D4;}
	.st4{fill-rule:evenodd;clip-rule:evenodd;fill:#E93F2E;}
</style><g id="XMLID_2_"><rect class="st0" height="58" id="XMLID_29_" width="88.8" x="3.3" y="32"/><rect class="st1" height="45.4" id="XMLID_28_" width="20.6" x="59.5" y="44.6"/><polygon class="st2" id="XMLID_27_" points="34.2,74 18.2,74 18.2,46 46.2,46 46.2,74  "/><rect class="st1" height="3.1" id="XMLID_26_" width="32.2" x="16.1" y="74"/><rect class="st1" height="32.2" id="XMLID_25_" width="3.1" x="45.2" y="44.9"/><rect class="st1" height="32.2" id="XMLID_24_" width="3.1" x="16.1" y="44.9"/><rect class="st1" height="3.1" id="XMLID_23_" width="32.2" x="16.1" y="42.9"/><rect class="st2" height="28" id="XMLID_22_" width="12.6" x="63.5" y="48"/><path class="st3" d="M24.1,26h-12v6c0,3.3,2.7,6,6,6h0c3.3,0,6-2.7,6-6V26L24.1,26z M96.1,26h-12v6c0,3.3,2.7,6,6,6   h0c3.3,0,6-2.7,6-6V26L96.1,26z M72.1,26h-12v6c0,3.3,2.7,6,6,6h0c3.3,0,6-2.7,6-6V26L72.1,26z M48.1,26h-12v6c0,3.3,2.7,6,6,6h0   c3.3,0,6-2.7,6-6V26z" id="XMLID_17_"/><path class="st4" d="M72.1,26h12v6c0,3.3-2.7,6-6,6h0c-3.3,0-6-2.7-6-6V26L72.1,26z M48.1,26h12v6c0,3.3-2.7,6-6,6   h0c-3.3,0-6-2.7-6-6V26L48.1,26z M24.1,26h12v6c0,3.3-2.7,6-6,6h0c-3.3,0-6-2.7-6-6V26L24.1,26z M0.1,26h12v6c0,3.3-2.7,6-6,6h0   c-3.3,0-6-2.7-6-6V26z" id="XMLID_12_"/><path class="st4" d="M0.1,26c4,0,8,0,12,0c0.5-2.7,1-5.3,1.5-8c0.5-2.7,1-5.3,1.5-8c-3.7,0-7.3,0-11,0   c-0.7,2.7-1.3,5.3-2,8C1.4,20.7,0.8,23.3,0.1,26z" id="XMLID_11_"/><path class="st3" d="M24.1,26c-4,0-8,0-12,0c0.5-2.7,1-5.3,1.5-8c0.5-2.7,1-5.3,1.5-8c3.7,0,7.3,0,11,0   c-0.3,2.7-0.7,5.3-1,8C24.8,20.7,24.4,23.3,24.1,26z" id="XMLID_10_"/><path class="st4" d="M24.1,26c4,0,8,0,12,0c0.2-2.7,0.3-5.3,0.5-8c0.2-2.7,0.3-5.3,0.5-8c-3.7,0-7.3,0-11,0   c-0.3,2.7-0.7,5.3-1,8C24.8,20.7,24.4,23.3,24.1,26z" id="XMLID_9_"/><path class="st3" d="M48.1,26c-4,0-8,0-12,0c0.2-2.7,0.3-5.3,0.5-8c0.2-2.7,0.3-5.3,0.5-8c3.7,0,7.3,0,11,0   c0,2.7,0,5.3,0,8C48.1,20.7,48.1,23.3,48.1,26z" id="XMLID_8_"/><path class="st3" d="M96.1,26c-4,0-8,0-12,0c-0.5-2.7-1-5.3-1.5-8c-0.5-2.7-1-5.3-1.5-8c3.7,0,7.3,0,11,0   c0.7,2.7,1.3,5.3,2,8C94.8,20.7,95.4,23.3,96.1,26z" id="XMLID_7_"/><path class="st4" d="M72.1,26c4,0,8,0,12,0c-0.5-2.7-1-5.3-1.5-8c-0.5-2.7-1-5.3-1.5-8c-3.7,0-7.3,0-11,0   c0.3,2.7,0.7,5.3,1,8C71.4,20.7,71.8,23.3,72.1,26z" id="XMLID_6_"/><path class="st3" d="M72.1,26c-4,0-8,0-12,0c-0.2-2.7-0.3-5.3-0.5-8c-0.2-2.7-0.3-5.3-0.5-8c3.7,0,7.3,0,11,0   c0.3,2.7,0.7,5.3,1,8C71.4,20.7,71.8,23.3,72.1,26z" id="XMLID_5_"/><path class="st4" d="M48.1,26c4,0,8,0,12,0c-0.2-2.7-0.3-5.3-0.5-8c-0.2-2.7-0.3-5.3-0.5-8c-3.7,0-7.3,0-11,0   c0,2.7,0,5.3,0,8C48.1,20.7,48.1,23.3,48.1,26z" id="XMLID_4_"/><rect class="st1" height="4" id="XMLID_3_" width="88" x="4.1" y="6"/></g></svg>