<svg xmlns="http://www.w3.org/2000/svg" viewBox="0 0 126.4 108.89"><defs><style>.cls-1{fill:none;stroke:#82b1ff;stroke-miterlimit:10;stroke-width:6px;}.cls-2{fill:#82b1ff;}.cls-3{fill:#fff;}.cls-4{fill:#448aff;}</style></defs><title>Asset 10</title><g id="Layer_2" data-name="Layer 2"><g id="Layer_6" data-name="Layer 6"><rect class="cls-1" x="3" y="29.05" width="115.43" height="60.44" rx="8"/><path class="cls-2" d="M119.21,45.3h4.19a3,3,0,0,1,3,3V70.23a3,3,0,0,1-3,3h-4.19a0,0,0,0,1,0,0V45.3A0,0,0,0,1,119.21,45.3Z"/><polygon class="cls-3" points="50.39 72.26 27.59 72.26 59.49 19.95 80.03 19.95 74.01 42.95 101.84 43.35 56.92 104.31 40.64 104.91 50.39 72.26"/><path class="cls-4" d="M66.16,49l23.72.34L46,108.89,58.77,66.1H38.67L79,0,66.16,49Z"/></g></g></svg>