<?xml version="1.0" encoding="utf-8"?>
<!-- Generator: Adobe Illustrator 23.0.3, SVG Export Plug-In . SVG Version: 6.00 Build 0)  -->
<svg version="1.1" id="Layer_1" xmlns="http://www.w3.org/2000/svg" xmlns:xlink="http://www.w3.org/1999/xlink" x="0px" y="0px"
	 viewBox="0 0 200 200" style="enable-background:new 0 0 200 200;" xml:space="preserve">
<style type="text/css">
	.st0{fill:#CCCCCC;}
	.st1{fill:#FFFFFF;stroke:#CCCCCC;stroke-miterlimit:10;}
	.st2{fill:#FFFFFF;}
	.st3{fill:#FFFFFF;stroke:#CCCCCC;stroke-width:0.5;stroke-miterlimit:10;}
	.st4{fill:#FFFFFF;stroke:#FFFFFF;stroke-width:0.5;stroke-miterlimit:10;}
</style>
<g>
	<circle class="st0" cx="100" cy="100" r="100"/>
</g>
<g>
	<path class="st1" d="M102.12,63.97H45.97c-5.55,0-10.1,4.55-10.1,10.1v54.85c0,5.54,4.55,10.09,10.1,10.09H87l2-6l-42.03,0.15
		c-2.9,0-5.25-2.35-5.25-5.24V76.06c0-2.9,2.35-5.25,5.25-5.25L98,71C98,71,102.12,63.97,102.12,63.97z"/>
	<path class="st1" d="M161.68,128.91v-13.83c3.28-0.12,6.45-0.91,6.45-5.05V91.45c0-4.18-3.2-4.96-6.45-5.06V74.06
		c0-5.18-4.73-10.1-10.09-10.1L116,64l-2,7h37c2.82,0,5,0.17,5,3.06v54.85c0,2.88-1.12,4.09-4,4.09h-46l-5,6h50.58
		C157.14,139,161.68,134.47,161.68,128.91z"/>
	<path class="st2" d="M105.9,93.12l25.62,0.37l-47.41,64.33l13.8-46.23H76.2l43.55-71.4L105.9,93.12L105.9,93.12z"/>
</g>
</svg>
