<svg xmlns="http://www.w3.org/2000/svg" viewBox="0 0 468 80.56"><title>Asset 7</title><rect width="468" height="80.56" rx="1.44" style="fill:#1e88e5"/><path d="M312.52,37.1H292.8a3.52,3.52,0,0,1-2.51,1.26H277.17l.54-1.27h-19l-1.14,2.54h51.66A13,13,0,0,0,312.52,37.1Z" style="fill:#fff"/><path d="M293.67,35.86h19.82a8.48,8.48,0,0,0,1-2.36H293.87A3.38,3.38,0,0,1,293.67,35.86Z" style="fill:#fff"/><path d="M260.75,32.64h18.88l.24-.55,12.93.06a2.41,2.41,0,0,1,.56.49h21.29a7.46,7.46,0,0,0,0-2.06H261.74a4.28,4.28,0,0,0-.3.51Z" style="fill:#fff"/><path d="M256.77,41.46,250.25,56H295.6A15.66,15.66,0,0,0,306,51.53c.35-.37,4.62-4.83,1.42-10.07Zm29.05,8.36h0c-3.32,0-13.18-.07-13.18-.07l2.84-6.53h12.93C291.2,44.05,289.14,49.82,285.82,49.82Z" style="fill:#fff"/><polygon points="259.3 35.86 278.25 35.86 279.26 33.5 260.36 33.5 259.3 35.86" style="fill:#fff"/><path d="M200,26.56l-3,7.56h16.74L203.68,56S214,56,215.14,56s7.44-.89,10.14-4.65c3.31-6.3,8.14-17.2,8.14-17.2S250.1,34,253.49,34c5.4,0,7.51-7.43,7.51-7.43Z" style="fill:#fff;fill-rule:evenodd"/><path d="M169.21,26.56s-9,19-10.57,23.3,1,6.1,4.25,6.1h38.5l3.31-8.38H181.33c-.61,0-1.86-.72-.82-3s8.5-18,8.5-18Z" style="fill:#fff;fill-rule:evenodd"/><path d="M141.59,26.56l-9.34,13.15,5.92.31L125.92,56h17.85c6.86,0,10.91-4,11.11-4.86s8-13.57,8.72-18c2-5-1.55-6.21-3.11-6.52Z" style="fill:#fff;fill-rule:evenodd"/><path d="M31.73,26.56s.27,6.72,6.08,7a40.21,40.21,0,0,1,5.11.41L49,55.92H73.34L97.81,34h4.42s-6.5,12.1-7.33,14.47.37,7.59,7,7.48,21.93,0,21.93,0l5.36-12.58-6.84-.06,5.16-16.73H86.8L66.46,44.11l-3.59-17.5Z" style="fill:#fff;fill-rule:evenodd"/><path d="M333.54,37.1H314.93c-.36.81-.74,1.66-1.12,2.54h18.58Z" style="fill:#fff;fill-rule:evenodd"/><path d="M315.5,35.86h18.63l1.08-2.36H316.53C316.23,34.2,315.88,35,315.5,35.86Z" style="fill:#fff;fill-rule:evenodd"/><path d="M336.77,30.09l1.59-3.49-14.57,0a6.25,6.25,0,0,0-5.71,3.46Z" style="fill:#fff;fill-rule:evenodd"/><path d="M305.91,26.56h-35a16,16,0,0,0-1.87.06h-1.16a6.26,6.26,0,0,0-5.71,3.46h52.39C313.44,28.76,311.05,26.6,305.91,26.56Z" style="fill:#fff;fill-rule:evenodd"/><path d="M317.65,30.88c-.14.35-.4,1-.75,1.76h18.7l.94-2.06H317.81A2.85,2.85,0,0,0,317.65,30.88Z" style="fill:#fff;fill-rule:evenodd"/><path d="M313,41.5C309.92,48.39,306.51,56,306.51,56l18.42,0,6.62-14.5Z" style="fill:#fff;fill-rule:evenodd"/><polygon points="355.32 35.86 356.36 33.5 337.62 33.5 336.57 35.86 355.32 35.86" style="fill:#fff;fill-rule:evenodd"/><polygon points="388.64 30.14 395.22 26.65 374.2 26.65 367.98 30.14 388.64 30.14" style="fill:#fff;fill-rule:evenodd"/><polygon points="355.38 37.19 354.5 37.69 354.72 37.19 335.96 37.19 334.84 39.73 370.54 39.73 375.32 37.19 355.38 37.19" style="fill:#fff;fill-rule:evenodd"/><polygon points="338.89 30.58 337.97 32.64 356.72 32.64 357.64 30.58 338.89 30.58" style="fill:#fff;fill-rule:evenodd"/><polygon points="357.68 35.91 377.75 35.91 382.2 33.55 361.88 33.55 357.68 35.91" style="fill:#fff;fill-rule:evenodd"/><polygon points="334.02 41.55 327.58 56 346.2 56 351.8 42.66 362.11 56 384.24 56 370.79 41.55 334.02 41.55" style="fill:#fff;fill-rule:evenodd"/><polygon points="363.42 32.64 383.83 32.64 387.72 30.58 367.11 30.58 363.42 32.64" style="fill:#fff;fill-rule:evenodd"/><path d="M357.79,30.09l1.59-3.49-14.57,0a6.25,6.25,0,0,0-5.71,3.46Z" style="fill:#fff;fill-rule:evenodd"/><path d="M434.61,30.09,436,26.61H401.55a7.39,7.39,0,0,0-6.83,3.48Z" style="fill:#fff;fill-rule:evenodd"/><path d="M431.41,38.52l-21.18,0,.6-1.4h-19.4l-1.12,2.54h40.55Z" style="fill:#fff;fill-rule:evenodd"/><path d="M392,35.86h19.37l1-2.36H393.06C392.74,34.2,392.39,35,392,35.86Z" style="fill:#fff;fill-rule:evenodd"/><path d="M434.42,30.58h-40l0,0c-.14.26-.48,1-.95,2h40.17" style="fill:#fff;fill-rule:evenodd"/><path d="M428.7,44.26,430,41.5H389.51c-1.79,4.06-3.52,8-4.17,9.59C384,55,387.24,56,388.76,56h0l35,0,2.86-5.93H405l2.7-5.66Z" style="fill:#fff;fill-rule:evenodd"/></svg>