<svg xmlns="http://www.w3.org/2000/svg" width="155" height="78" viewBox="0 0 155 78">
  <g id="Group_163" data-name="Group 163" transform="translate(-341 -874.855)">
    <path id="Exclusion_5" data-name="Exclusion 5" d="M26,51a26.275,26.275,0,0,1-10.12-2,25.948,25.948,0,0,1-8.264-5.465,25.394,25.394,0,0,1-5.572-8.105,25.131,25.131,0,0,1,0-19.852A25.394,25.394,0,0,1,7.615,7.469,25.948,25.948,0,0,1,15.88,2,26.558,26.558,0,0,1,36.12,2a25.947,25.947,0,0,1,8.264,5.465,25.393,25.393,0,0,1,5.572,8.105,25.132,25.132,0,0,1,0,19.852,25.393,25.393,0,0,1-5.572,8.105A25.947,25.947,0,0,1,36.12,49,26.276,26.276,0,0,1,26,51ZM26,6.448A19.3,19.3,0,0,0,6.5,25.5,19.3,19.3,0,0,0,26,44.552,19.3,19.3,0,0,0,45.5,25.5,19.3,19.3,0,0,0,26,6.448Z" transform="translate(351 901.855)" fill="#82b1ff"/>
    <path id="Exclusion_6" data-name="Exclusion 6" d="M26,51a26.275,26.275,0,0,1-10.12-2,25.948,25.948,0,0,1-8.264-5.465,25.394,25.394,0,0,1-5.572-8.105,25.131,25.131,0,0,1,0-19.852A25.394,25.394,0,0,1,7.615,7.469,25.948,25.948,0,0,1,15.88,2,26.558,26.558,0,0,1,36.12,2a25.947,25.947,0,0,1,8.264,5.465,25.393,25.393,0,0,1,5.572,8.105,25.132,25.132,0,0,1,0,19.852,25.393,25.393,0,0,1-5.572,8.105A25.947,25.947,0,0,1,36.12,49,26.276,26.276,0,0,1,26,51ZM26,6.448A19.3,19.3,0,0,0,6.5,25.5,19.3,19.3,0,0,0,26,44.552,19.3,19.3,0,0,0,45.5,25.5,19.3,19.3,0,0,0,26,6.448Z" transform="translate(444 901.855)" fill="#82b1ff"/>
    <path id="Path_361" data-name="Path 361" d="M925.478,328.446c-.024.117.111.285.111.285s1.616,2.562,2.038,3.331a11.761,11.761,0,0,1,.721,1.659l12.175,24.9,1.086,1.036,1.685-.857-.288-1.276-11.546-25.462a6.729,6.729,0,0,1-1.193-1.474c-.415-.764-1.321-3.307-1.321-3.307s-.039-.281-.111-.3a.768.768,0,0,0-.259.055l-2.892,1.222S925.5,328.329,925.478,328.446Z" transform="translate(-471.775 569.213)" fill="#82b1ff"/>
    <g id="Path_360" data-name="Path 360" transform="translate(119.511 -40.465)" fill="none" stroke-linecap="round">
      <path d="M337.647,937.674c-.193.5-.776.535-2.069,1.127a1.641,1.641,0,0,1-.785.152c-.317-.063-.6-.584-.6-.584s-.27-.656-.811-.695-1.158.695-1.158.695-24.6,35.506-30.3,35.363-25.751.052-35.255-2.184a52.211,52.211,0,0,1-16.026-6.708s-8.887-5.031-13.976-11.74-6-15.883-6-15.883h42.381a19.354,19.354,0,0,1,2.669.414c1.242.3,25.432,14.034,26.946,14.454a1.905,1.905,0,0,0,2.205-.882l16.734-20.124a8.2,8.2,0,0,1,1.432-1.246c.863-.589,1.983-1.322,8.186-5.555a2.233,2.233,0,0,1,1.2,0,1.634,1.634,0,0,1,.81.81l3.915,10.51S337.84,937.178,337.647,937.674Z" stroke="none"/>
      <path d="M 330.6173706054688 929.5305786132813 C 328.1109619140625 931.2359619140625 326.8801879882813 932.0646362304688 326.1347045898438 932.5665893554688 C 325.7720336914063 932.810791015625 325.5235900878906 932.9780883789063 325.2937316894531 933.1349487304688 C 324.9901428222656 933.3421630859375 324.7293701171875 933.5936279296875 324.6268005371094 933.70166015625 L 308.1146545410156 953.558837890625 C 307.2378845214844 954.8519287109375 305.5560913085938 956.1670532226563 303.2503967285156 956.1670532226563 C 302.7018432617188 956.1670532226563 302.1461486816406 956.090087890625 301.5987243652344 955.9384155273438 C 300.6060180664063 955.6632080078125 299.117919921875 954.9065551757813 286.7524719238281 948.0909423828125 C 282.1648864746094 945.5623779296875 275.9578552246094 942.14111328125 274.5122375488281 941.4567260742188 C 273.9091491699219 941.3302612304688 273.2294311523438 941.249755859375 272.8782653808594 941.2161254882813 L 235.521484375 941.2161254882813 C 235.5531005859375 941.33544921875 235.5857238769531 941.4561767578125 235.6194458007813 941.5785522460938 C 236.3144836425781 944.0982666015625 237.6141357421875 947.7229614257813 239.8587341308594 950.681884765625 C 244.3711547851563 956.6304321289063 252.5395202636719 961.3133544921875 252.618408203125 961.3582153320313 L 252.76806640625 961.4429321289063 L 252.9098815917969 961.5401611328125 C 252.9689025878906 961.5806274414063 258.9149169921875 965.61279296875 267.5895385742188 967.65380859375 C 275.1149597167969 969.4244995117188 290.6740112304688 969.594970703125 298.1513061523438 969.6768798828125 C 299.5140075683594 969.6917724609375 300.6376037597656 969.7041015625 301.529052734375 969.7217407226563 C 302.079345703125 969.404052734375 303.7487182617188 968.2294311523438 307.4017333984375 964.16796875 C 310.0589599609375 961.2136840820313 313.2779541015625 957.277099609375 316.9693298339844 952.4674682617188 C 323.3103332519531 944.2056884765625 328.8839111328125 936.1710205078125 328.939453125 936.0908203125 L 329.0466613769531 935.9360961914063 L 329.1678466796875 935.7921752929688 C 329.6047668457031 935.2733154296875 330.66748046875 934.1944580078125 332.2117614746094 933.8111572265625 L 330.6173706054688 929.5305786132813 M 331.870361328125 924.1904296875 C 332.0475463867188 924.1904296875 332.2403564453125 924.2117919921875 332.4203796386719 924.276123046875 C 332.9603271484375 924.468994140625 333.2303466796875 925.0861206054688 333.2303466796875 925.0861206054688 L 337.1452941894531 935.5966186523438 C 337.1452941894531 935.5966186523438 337.8395690917969 937.177978515625 337.6466979980469 937.6737060546875 C 337.453857421875 938.1693725585938 336.87109375 938.2083740234375 335.57763671875 938.8004760742188 C 335.57763671875 938.8004760742188 335.2213134765625 938.9637451171875 334.9196166992188 938.9637451171875 C 334.8756103515625 938.9637451171875 334.8328247070313 938.9602661132813 334.7924194335938 938.9523315429688 C 334.4750061035156 938.8897705078125 334.1964416503906 938.36865234375 334.1964416503906 938.36865234375 C 334.1964416503906 938.36865234375 333.9261779785156 937.7122802734375 333.3857116699219 937.6737060546875 C 333.3718872070313 937.6727294921875 333.3579406738281 937.6722412109375 333.3440246582031 937.6722412109375 C 332.81396484375 937.6722412109375 332.2275390625 938.36865234375 332.2275390625 938.36865234375 C 332.2275390625 938.36865234375 307.7302551269531 973.7320556640625 301.9628295898438 973.7320556640625 C 301.9512023925781 973.7320556640625 301.9396667480469 973.73193359375 301.9281616210938 973.7316284179688 C 296.2250061035156 973.5884399414063 276.1769409179688 973.7836303710938 266.6733703613281 971.5474853515625 C 257.1697998046875 969.3114013671875 250.6477355957031 964.8390502929688 250.6477355957031 964.8390502929688 C 250.6477355957031 964.8390502929688 241.7606811523438 959.8076171875 236.6719055175781 953.099365234375 C 231.5831298828125 946.39111328125 230.6716003417969 937.2161254882813 230.6716003417969 937.2161254882813 L 273.052978515625 937.2161254882813 C 273.052978515625 937.2161254882813 274.479248046875 937.325927734375 275.7215881347656 937.6298828125 C 276.9638977050781 937.933837890625 301.1535339355469 951.6641235351563 302.667236328125 952.083740234375 C 302.8773193359375 952.1419677734375 303.0716552734375 952.1670532226563 303.2503967285156 952.1670532226563 C 304.359619140625 952.1670532226563 304.8724975585938 951.20166015625 304.8724975585938 951.20166015625 L 321.6066589355469 931.0775146484375 C 321.6066589355469 931.0775146484375 322.1753845214844 930.42041015625 323.0387878417969 929.8311157226563 C 323.9021606445313 929.2418212890625 325.021728515625 928.5092163085938 331.2246704101563 924.276123046875 C 331.2246704101563 924.276123046875 331.51611328125 924.1904296875 331.870361328125 924.1904296875 Z" stroke="none" fill="#82b1ff"/>
    </g>
    <rect id="Rectangle_10917" data-name="Rectangle 10917" width="14" height="11" transform="translate(365 915.855)" fill="#2677ff"/>
    <path id="Path_362" data-name="Path 362" d="M291.79,940.488l12.537,30.2" transform="translate(116.421 -41.288)" fill="none" stroke="#82b1ff" stroke-linecap="round" stroke-width="3"/>
    <path id="Path_363" data-name="Path 363" d="M247.651,870H275" transform="translate(115.804 57.22)" fill="none" stroke="#82b1ff" stroke-linecap="round" stroke-width="2"/>
    <path id="Path_364" data-name="Path 364" d="M247.651,870h41.5" transform="translate(102.668 25.888)" fill="none" stroke="#82b1ff" stroke-linecap="round" stroke-width="2"/>
    <rect id="Rectangle_10916" data-name="Rectangle 10916" width="53" height="6" rx="3" transform="translate(341 888.855)" fill="#2677ff"/>
    <rect id="Rectangle_10915" data-name="Rectangle 10915" width="21" height="18" transform="translate(369 876.855)" fill="#3480ff"/>
    <path id="Path_365" data-name="Path 365" d="M9.763,0H21.087V17.419H0Z" transform="translate(368.534 908.851)" fill="#448aff"/>
    <circle id="Ellipse_97" data-name="Ellipse 97" cx="10" cy="10" r="10" transform="translate(354 874.855)" fill="#448aff"/>
    <path id="Path_366" data-name="Path 366" d="M59.981,25.542a8.488,8.488,0,0,1,2.051.085A11.289,11.289,0,0,0,64.88,25.4c.361-.133.475-.266.5-.389s0-.256-.18-.513a2.706,2.706,0,0,0-2.136-1.453,9.494,9.494,0,0,0-2.611,0,18.391,18.391,0,0,1-3.7.095c-.8-.095-2.146-.646-3.475-.836a7.368,7.368,0,0,0-3.532.285c-1.263.56-1.111,1.453-.817,1.9s1.32.76,3.95,1.8c1.291.513,2.535-.209,4.5-.541a15.684,15.684,0,0,1,2.6-.209Z" transform="translate(348.981 869.181)" fill="#82b1ff"/>
    <path id="Path_367" data-name="Path 367" d="M335.65,820.018a9.725,9.725,0,0,1,2.764.779c.1.178,1.157.578,0,1.679a23.4,23.4,0,0,1-4.544,2.627" transform="translate(113.345 56.311)" fill="none" stroke="#82b1ff" stroke-linecap="round" stroke-width="2.5"/>
  </g>
</svg>
