<svg xmlns="http://www.w3.org/2000/svg" width="191" height="96.289" viewBox="0 0 191 96.289">
  <g id="Group_163" data-name="Group 163" transform="translate(-341 -874.971)">
    <path id="Exclusion_5" data-name="Exclusion 5" d="M32,63A32.156,32.156,0,0,1,9.373,53.774,31.372,31.372,0,0,1,2.515,43.761a31.149,31.149,0,0,1,0-24.523A31.373,31.373,0,0,1,9.373,9.226,32.431,32.431,0,0,1,44.456,2.475,31.926,31.926,0,0,1,54.627,9.226a31.372,31.372,0,0,1,6.858,10.013,31.15,31.15,0,0,1,0,24.523,31.372,31.372,0,0,1-6.858,10.013A32.156,32.156,0,0,1,32,63ZM32,7.965A23.8,23.8,0,0,0,8,31.5,23.8,23.8,0,0,0,32,55.035,23.8,23.8,0,0,0,56,31.5,23.8,23.8,0,0,0,32,7.965Z" transform="translate(353 908.26)" fill="#7eaafe"/>
    <path id="Exclusion_6" data-name="Exclusion 6" d="M32,63A32.156,32.156,0,0,1,9.373,53.774,31.372,31.372,0,0,1,2.515,43.761a31.149,31.149,0,0,1,0-24.523A31.373,31.373,0,0,1,9.373,9.226,32.431,32.431,0,0,1,44.456,2.475,31.926,31.926,0,0,1,54.627,9.226a31.372,31.372,0,0,1,6.858,10.013,31.15,31.15,0,0,1,0,24.523,31.372,31.372,0,0,1-6.858,10.013A32.156,32.156,0,0,1,32,63ZM32,7.965A23.8,23.8,0,0,0,8,31.5,23.8,23.8,0,0,0,32,55.035,23.8,23.8,0,0,0,56,31.5,23.8,23.8,0,0,0,32,7.965Z" transform="translate(468 908.26)" fill="#82b1ff"/>
    <path id="Path_361" data-name="Path 361" d="M925.479,328.792c-.03.145.137.352.137.352s2,3.167,2.519,4.117a14.542,14.542,0,0,1,.891,2.05l15.048,30.775,1.342,1.281,2.083-1.06-.355-1.577-14.271-31.47a8.319,8.319,0,0,1-1.474-1.821c-.513-.945-1.632-4.087-1.632-4.087s-.048-.348-.137-.366a.949.949,0,0,0-.32.069l-3.575,1.51S925.509,328.647,925.479,328.792Z" transform="translate(-445.181 574.249)" fill="#82b1ff"/>
    <g id="Path_360" data-name="Path 360" transform="translate(121.678 -38.371)" fill="none" stroke-linecap="round">
      <path d="M362.89,940.855c-.238.613-.959.661-2.557,1.393a2.028,2.028,0,0,1-.97.188c-.392-.077-.737-.721-.737-.721s-.334-.811-1-.859-1.431.859-1.431.859-30.4,43.885-37.449,43.708-31.828.064-43.574-2.7a64.53,64.53,0,0,1-19.807-8.291s-10.984-6.219-17.274-14.51-7.416-19.631-7.416-19.631h52.382a23.93,23.93,0,0,1,3.3.511c1.535.376,31.433,17.346,33.3,17.865a2.355,2.355,0,0,0,2.726-1.09L343.065,932.7a10.141,10.141,0,0,1,1.77-1.541c1.067-.728,2.451-1.634,10.118-6.866a2.759,2.759,0,0,1,1.478,0,2.02,2.02,0,0,1,1,1l4.839,12.991S363.128,940.243,362.89,940.855Z" stroke="none"/>
      <path d="M 354.1740112304688 930.8773803710938 C 351.1112976074219 932.961181640625 349.6040649414063 933.9759521484375 348.6886596679688 934.5923461914063 C 348.232177734375 934.899658203125 347.9306030273438 935.1027221679688 347.6535034179688 935.2918090820313 C 347.2835083007813 935.5443725585938 346.9652099609375 935.8510131835938 346.8394165039063 935.9833984375 L 326.4335327148438 960.5230712890625 C 325.3408508300781 962.1327514648438 323.2468566894531 963.7687377929688 320.3768615722656 963.7687377929688 C 319.6937561035156 963.7687377929688 319.0018920898438 963.6729736328125 318.3203735351563 963.4840087890625 C 317.0133972167969 963.1217041015625 314.4393005371094 961.7612915039063 299.9585876464844 953.77978515625 C 294.2957458496094 950.6585083007813 286.6351318359375 946.4360961914063 284.8392944335938 945.5845947265625 C 284.099609375 945.429931640625 283.2673034667969 945.3312377929688 282.8351135253906 945.289794921875 L 236.7415161132813 945.289794921875 C 237.6613159179688 948.7468872070313 239.2877197265625 953.2296752929688 242.0713500976563 956.899169921875 C 247.6413269042969 964.2417602539063 257.7275390625 970.0244750976563 257.8248901367188 970.079833984375 L 258.0119323730469 970.1857299804688 L 258.1891784667969 970.3073120117188 C 258.2620849609375 970.3572387695313 265.6024780273438 975.3349609375 276.3139953613281 977.855224609375 C 280.2679748535156 978.7855834960938 286.4731140136719 979.463623046875 294.7570495605469 979.8704223632813 C 301.888916015625 980.220703125 308.9319152832031 980.2978515625 314.0744934082031 980.3541870117188 C 315.7485046386719 980.3724975585938 317.1304321289063 980.3876342773438 318.2282409667969 980.4092407226563 C 318.5816040039063 980.2005004882813 319.3240966796875 979.69775390625 320.57373046875 978.5704956054688 C 321.9472351074219 977.33154296875 323.5989074707031 975.6408081054688 325.4828491210938 973.5453491210938 C 328.7658081054688 969.8938598632813 332.7418212890625 965.030517578125 337.3004760742188 959.09033203125 C 345.1318969726563 948.8856811523438 352.0131225585938 938.9659423828125 352.0816345214844 938.8670043945313 L 352.2156372070313 938.673583984375 L 352.3672485351563 938.4935302734375 C 352.9054565429688 937.8544311523438 354.2067260742188 936.532958984375 356.0978698730469 936.0422973632813 L 354.1740112304688 930.8773803710938 M 355.7503356933594 924.1904296875 C 355.9692993164063 924.1904296875 356.2076110839844 924.2169189453125 356.4301147460938 924.29638671875 C 357.0975341796875 924.53466796875 357.4312133789063 925.2974853515625 357.4312133789063 925.2974853515625 L 362.2699890136719 938.2880859375 C 362.2699890136719 938.2880859375 363.1280517578125 940.24267578125 362.8897094726563 940.8553466796875 C 362.6513671875 941.468017578125 361.9310913085938 941.5162353515625 360.3323974609375 942.248046875 C 360.3323974609375 942.248046875 359.8920288085938 942.4497680664063 359.5191650390625 942.4497680664063 C 359.4647827148438 942.4497680664063 359.411865234375 942.4454956054688 359.3619079589844 942.4356689453125 C 358.9695739746094 942.3583984375 358.6252746582031 941.7142333984375 358.6252746582031 941.7142333984375 C 358.6252746582031 941.7142333984375 358.291259765625 940.903076171875 357.6232604980469 940.8553466796875 C 357.6061401367188 940.8541259765625 357.5889282226563 940.853515625 357.5716857910156 940.853515625 C 356.9165954589844 940.853515625 356.1917724609375 941.7142333984375 356.1917724609375 941.7142333984375 C 356.1917724609375 941.7142333984375 325.9138793945313 985.4224243164063 318.7854919433594 985.4224243164063 C 318.7711181640625 985.4224243164063 318.7568664550781 985.4222412109375 318.7426452636719 985.421875 C 311.6936950683594 985.244873046875 286.9148864746094 985.4862060546875 275.1687622070313 982.7222900390625 C 263.422607421875 979.9586181640625 255.3615112304688 974.430908203125 255.3615112304688 974.430908203125 C 255.3615112304688 974.430908203125 244.3773803710938 968.212158203125 238.0878295898438 959.9210205078125 C 231.7982177734375 951.6297607421875 230.6715698242188 940.289794921875 230.6715698242188 940.289794921875 L 283.0537719726563 940.289794921875 C 283.0537719726563 940.289794921875 284.8165893554688 940.425537109375 286.3520812988281 940.8011474609375 C 287.8875427246094 941.1768798828125 317.7852172851563 958.1470947265625 319.6561279296875 958.665771484375 C 319.9158020019531 958.7377319335938 320.1559143066406 958.7687377929688 320.3768615722656 958.7687377929688 C 321.7478332519531 958.7687377929688 322.3817443847656 957.5755615234375 322.3817443847656 957.5755615234375 L 343.064697265625 932.70263671875 C 343.064697265625 932.70263671875 343.7676086425781 931.8905029296875 344.834716796875 931.162109375 C 345.90185546875 930.433837890625 347.2856140136719 929.5283203125 354.9522705078125 924.29638671875 C 354.9522705078125 924.29638671875 355.3125 924.1904296875 355.7503356933594 924.1904296875 Z" stroke="none" fill="#7eaafe"/>
    </g>
    <rect id="Rectangle_10917" data-name="Rectangle 10917" width="17" height="14" transform="translate(371 925.26)" fill="#3671fe"/>
    <path id="Path_365" data-name="Path 365" d="M12.067,0h14V21.507H0Z" transform="translate(375.031 916.873)" fill="#4982fe"/>
    <path id="Path_362" data-name="Path 362" d="M291.79,940.488l15.5,37.327" transform="translate(132.281 -35.544)" fill="none" stroke="#82b1ff" stroke-linecap="round" stroke-width="4"/>
    <path id="Path_363" data-name="Path 363" d="M247.651,870h33.8" transform="translate(121.103 69.576)" fill="none" stroke="#82b1ff" stroke-linecap="round" stroke-width="3"/>
    <path id="Path_364" data-name="Path 364" d="M247.651,870h51.293" transform="translate(104.867 30.851)" fill="none" stroke="#82b1ff" stroke-linecap="round" stroke-width="3"/>
    <rect id="Rectangle_10916" data-name="Rectangle 10916" width="66" height="7" rx="3" transform="translate(341 893.26)" fill="#3671fe"/>
    <path id="Rectangle_10915" data-name="Rectangle 10915" d="M0,0H21a5,5,0,0,1,5,5V20a0,0,0,0,1,0,0H0a0,0,0,0,1,0,0V0A0,0,0,0,1,0,0Z" transform="translate(371 880.26)" fill="#7eaafe"/>
    <ellipse id="Ellipse_97" data-name="Ellipse 97" cx="12.5" cy="12" rx="12.5" ry="12" transform="translate(357 876.26)" fill="#4982fe"/>
    <path id="Path_366" data-name="Path 366" d="M62.637,26.329a10.491,10.491,0,0,1,2.535.106,13.953,13.953,0,0,0,3.52-.282c.446-.164.587-.329.622-.481s0-.317-.223-.634a3.344,3.344,0,0,0-2.64-1.8,11.735,11.735,0,0,0-3.227,0,22.731,22.731,0,0,1-4.577.117c-.986-.117-2.652-.8-4.295-1.033a9.106,9.106,0,0,0-4.365.352c-1.561.692-1.373,1.8-1.009,2.347s1.631.939,4.882,2.23c1.6.634,3.133-.258,5.562-.669a19.385,19.385,0,0,1,3.215-.258Z" transform="translate(363.362 873.082)" fill="#82b1ff"/>
    <path id="Path_367" data-name="Path 367" d="M336.07,820.018a12.021,12.021,0,0,1,3.417.962c.129.22,1.43.714,0,2.075s-5.616,3.247-5.616,3.247" transform="translate(138.408 56.659)" fill="none" stroke="#82b1ff" stroke-linecap="round" stroke-width="3"/>
  </g>
</svg>
