<svg version="1.1"
      xmlns="http://www.w3.org/2000/svg"
      xmlns:xlink="http://www.w3.org/1999/xlink"  id="snapshot-37146" width="250" height="250" viewBox="0 0 250 250"><desc>This image was made on Patterninja.com</desc><defs>
<!-- image 45740 -->
<g id="transformed-45740" data-image="45740" transform="translate(-180.36526668283003, -12.045651738893497) rotate(45, 180.36526668283003, 62.0456517388935)"><g><svg version="1.1" width="360.73053336566005px" height="124.091303477787px" viewBox="0 0 360.73053336566005 124.091303477787"><g id="original-45740"><svg xmlns="http://www.w3.org/2000/svg" viewBox="0 0 115.11 40.02" xmlns:xlink="http://www.w3.org/1999/xlink" version="1.1" preserveAspectRatio="xMidYMid meet">
  <path stroke-miterlimit="10" d="M114.62 30.45a28.71 28.71 0 0 0-17.1 5.36 19.51 19.51 0 1 1 .32-31.32 28.78 28.78 0 0 0 16.75 5.1" fill="rgba(183, 209, 255, 1)" stroke="rgba(41, 121, 255, 0)"/>
  <path stroke-miterlimit="10" d="M.49 9.57a28.83 28.83 0 0 0 16.75-5.1 19.51 19.51 0 1 1 .32 31.32A28.65 28.65 0 0 0 .5 30.45" fill="rgba(183, 209, 255, 1)" stroke="rgba(41, 121, 255, 0)"/>
  <path d="M57.68 8a38.59 38.59 0 0 1-17-5 27.8 27.8 0 0 0-11-3 20 20 0 0 0 0 40 27.8 27.8 0 0 0 11-3 39.91 39.91 0 0 1 17.61-5s7.39 0 16.39 5a27.8 27.8 0 0 0 11 3 20 20 0 0 0 0-40 27.8 27.8 0 0 0-11 3 38.59 38.59 0 0 1-17 5z" fill="rgba(211, 227, 255, 1)" stroke="none"/>
</svg>
</g></svg></g></g>
<!-- /image 45740 -->
</defs><rect x="0" y="0" width="250" height="250" fill="rgba(252, 252, 252, 1)"></rect><use xlink:href="#transformed-45740" transform="translate(-250, -250)"></use><use xlink:href="#transformed-45740" transform="translate(0, -250)"></use><use xlink:href="#transformed-45740" transform="translate(250, -250)"></use><use xlink:href="#transformed-45740" transform="translate(-250, 0)"></use><use xlink:href="#transformed-45740" transform="translate(0, 0)"></use><use xlink:href="#transformed-45740" transform="translate(250, 0)"></use><use xlink:href="#transformed-45740" transform="translate(-250, 250)"></use><use xlink:href="#transformed-45740" transform="translate(0, 250)"></use><use xlink:href="#transformed-45740" transform="translate(250, 250)"></use></svg>