<svg xmlns="http://www.w3.org/2000/svg" viewBox="0 0 155.17 125.17"><title>Asset 19</title><circle cx="127.78" cy="15.46" r="15.46" style="fill:#82b1ff"/><rect x="80.59" y="14.94" width="4.7" height="4.7" style="fill:#82b1ff"/><path d="M83.79,16.44v1.7h-1.7v-1.7h1.7m3-3h-7.7v7.7h7.7v-7.7Z" style="fill:#82b1ff"/><rect x="80.59" y="30.35" width="4.7" height="4.7" style="fill:#82b1ff"/><path d="M83.79,31.85v1.7h-1.7v-1.7h1.7m3-3h-7.7v7.7h7.7v-7.7Z" style="fill:#82b1ff"/><rect x="80.59" y="45.75" width="4.7" height="4.7" style="fill:#82b1ff"/><path d="M83.79,47.25V49h-1.7v-1.7h1.7m3-3h-7.7V52h7.7v-7.7Z" style="fill:#82b1ff"/><rect x="80.59" y="61.15" width="4.7" height="4.7" style="fill:#82b1ff"/><path d="M83.79,62.65v1.7h-1.7v-1.7h1.7m3-3h-7.7v7.7h7.7v-7.7Z" style="fill:#82b1ff"/><rect x="65.19" y="14.94" width="4.7" height="4.7" style="fill:#82b1ff"/><path d="M68.39,16.44v1.7h-1.7v-1.7h1.7m3-3h-7.7v7.7h7.7v-7.7Z" style="fill:#82b1ff"/><rect x="34.39" y="45.75" width="4.7" height="4.7" style="fill:#82b1ff"/><path d="M37.59,47.25V49h-1.7v-1.7h1.7m3-3h-7.7V52h7.7v-7.7Z" style="fill:#82b1ff"/><rect x="34.39" y="30.35" width="4.7" height="4.7" style="fill:#82b1ff"/><path d="M37.59,31.85v1.7h-1.7v-1.7h1.7m3-3h-7.7v7.7h7.7v-7.7Z" style="fill:#82b1ff"/><rect x="65.19" y="30.35" width="4.7" height="4.7" style="fill:#82b1ff"/><path d="M68.39,31.85v1.7h-1.7v-1.7h1.7m3-3h-7.7v7.7h7.7v-7.7Z" style="fill:#82b1ff"/><rect x="34.39" y="61.15" width="4.7" height="4.7" style="fill:#82b1ff"/><path d="M37.59,62.65v1.7h-1.7v-1.7h1.7m3-3h-7.7v7.7h7.7v-7.7Z" style="fill:#82b1ff"/><rect x="65.19" y="45.75" width="4.7" height="4.7" style="fill:#82b1ff"/><path d="M68.39,47.25V49h-1.7v-1.7h1.7m3-3h-7.7V52h7.7v-7.7Z" style="fill:#82b1ff"/><rect x="34.39" y="76.55" width="4.7" height="4.7" style="fill:#82b1ff"/><path d="M37.59,78.05v1.7h-1.7v-1.7h1.7m3-3h-7.7v7.7h7.7v-7.7Z" style="fill:#82b1ff"/><rect x="65.19" y="61.15" width="4.7" height="4.7" style="fill:#82b1ff"/><path d="M68.39,62.65v1.7h-1.7v-1.7h1.7m3-3h-7.7v7.7h7.7v-7.7Z" style="fill:#82b1ff"/><path d="M152.17,96.19H107.94V94.3a1.89,1.89,0,0,0-1.89-1.89H102.2a2,2,0,0,1-2-2V1.89A1.89,1.89,0,0,0,98.35,0H52.14a1.89,1.89,0,0,0-1.89,1.89V13.44a2,2,0,0,1-2,2H21.34a1.89,1.89,0,0,0-1.89,1.89V90.45a2,2,0,0,1-2,2H13.64a1.89,1.89,0,0,0-1.89,1.89v1.89H3a3,3,0,0,0-3,3v24.1a1.88,1.88,0,0,0,1.88,1.88H153.29a1.88,1.88,0,0,0,1.88-1.88V99.19A3,3,0,0,0,152.17,96.19ZM69.44,90.45v-7.7a2,2,0,0,1,2-2h7.7a2,2,0,0,1,2,2v7.7a2,2,0,0,1-2,2h-7.7A2,2,0,0,1,69.44,90.45ZM23.23,21.14a2,2,0,0,1,2-1.95h23.1a2,2,0,0,1,2,1.95V78.9a1.9,1.9,0,0,0,3.79,0V5.74a2,2,0,0,1,2-1.95h38.5a2,2,0,0,1,2,2V90.45a2,2,0,0,1-2,2h-7.7a2,2,0,0,1-2-2V78.9a1.9,1.9,0,0,0-1.9-1.9H67.54a1.9,1.9,0,0,0-1.89,1.9V90.45a2,2,0,0,1-2,2H25.19a2,2,0,0,1-2-2Z" style="fill:#82b1ff"/></svg>