<svg xmlns="http://www.w3.org/2000/svg" viewBox="0 0 158.17 126.37"><title>Asset 15</title><path d="M156.67,98.89V123a1.88,1.88,0,0,1-1.88,1.88H3.38A1.88,1.88,0,0,1,1.5,123V98.89a3,3,0,0,1,3-3H153.67A3,3,0,0,1,156.67,98.89Z" style="fill:#82b1ff;stroke:#82b1ff;stroke-miterlimit:10;stroke-width:3px"/><circle cx="129.28" cy="15.46" r="15.46" style="fill:#82b1ff"/><rect x="81.39" y="16.27" width="4.42" height="4.42" style="fill:#82b1ff"/><path d="M84.31,17.77v1.42H82.89V17.77h1.42m3-3H79.89v7.42h7.42V14.77Z" style="fill:#82b1ff"/><rect x="81.39" y="31.11" width="4.42" height="4.42" style="fill:#82b1ff"/><path d="M84.31,32.61V34H82.89V32.61h1.42m3-3H79.89V37h7.42V29.61Z" style="fill:#82b1ff"/><rect x="81.39" y="45.95" width="4.42" height="4.42" style="fill:#82b1ff"/><path d="M84.31,47.45v1.42H82.89V47.45h1.42m3-3H79.89v7.42h7.42V44.45Z" style="fill:#82b1ff"/><rect x="81.39" y="60.79" width="4.42" height="4.42" style="fill:#82b1ff"/><path d="M84.31,62.29v1.42H82.89V62.29h1.42m3-3H79.89v7.42h7.42V59.29Z" style="fill:#82b1ff"/><rect x="66.55" y="16.27" width="4.42" height="4.42" style="fill:#82b1ff"/><path d="M69.47,17.77v1.42H68.05V17.77h1.42m3-3H65.05v7.42h7.42V14.77Z" style="fill:#82b1ff"/><rect x="36.87" y="45.95" width="4.42" height="4.42" style="fill:#82b1ff"/><path d="M39.79,47.45v1.42H38.37V47.45h1.42m3-3H35.37v7.42h7.42V44.45Z" style="fill:#82b1ff"/><rect x="36.87" y="31.11" width="4.42" height="4.42" style="fill:#82b1ff"/><path d="M39.79,32.61V34H38.37V32.61h1.42m3-3H35.37V37h7.42V29.61Z" style="fill:#82b1ff"/><rect x="66.55" y="31.11" width="4.42" height="4.42" style="fill:#82b1ff"/><path d="M69.47,32.61V34H68.05V32.61h1.42m3-3H65.05V37h7.42V29.61Z" style="fill:#82b1ff"/><rect x="36.87" y="60.79" width="4.42" height="4.42" style="fill:#82b1ff"/><path d="M39.79,62.29v1.42H38.37V62.29h1.42m3-3H35.37v7.42h7.42V59.29Z" style="fill:#82b1ff"/><rect x="66.55" y="45.95" width="4.42" height="4.42" style="fill:#82b1ff"/><path d="M69.47,47.45v1.42H68.05V47.45h1.42m3-3H65.05v7.42h7.42V44.45Z" style="fill:#82b1ff"/><rect x="36.87" y="75.63" width="4.42" height="4.42" style="fill:#82b1ff"/><path d="M39.79,77.13v1.42H38.37V77.13h1.42m3-3H35.37v7.42h7.42V74.13Z" style="fill:#82b1ff"/><rect x="66.55" y="60.79" width="4.42" height="4.42" style="fill:#82b1ff"/><path d="M69.47,62.29v1.42H68.05V62.29h1.42m3-3H65.05v7.42h7.42V59.29Z" style="fill:#82b1ff"/><path d="M15,94.5V92.68a1.82,1.82,0,0,1,1.82-1.83h3.71A1.89,1.89,0,0,0,22.42,89V18.48a1.82,1.82,0,0,1,1.82-1.83h26a1.89,1.89,0,0,0,1.89-1.88V3.64a1.83,1.83,0,0,1,1.82-1.83H98.44a1.83,1.83,0,0,1,1.83,1.83V89a1.88,1.88,0,0,0,1.88,1.88h3.71a1.83,1.83,0,0,1,1.83,1.83V94.5ZM83.6,76a1.83,1.83,0,0,1,1.83,1.83V89a1.88,1.88,0,0,0,1.88,1.88h7.42A1.89,1.89,0,0,0,96.62,89V7.35a1.89,1.89,0,0,0-1.89-1.89H57.63a1.88,1.88,0,0,0-1.88,1.89V77.84a1.83,1.83,0,0,1-3.65,0V22.19a1.89,1.89,0,0,0-1.89-1.89H28a1.88,1.88,0,0,0-1.88,1.89V89A1.88,1.88,0,0,0,28,90.85h37.1A1.89,1.89,0,0,0,66.94,89V77.84A1.83,1.83,0,0,1,68.76,76ZM72.47,79.66a1.89,1.89,0,0,0-1.88,1.89V89a1.88,1.88,0,0,0,1.88,1.88h7.42A1.89,1.89,0,0,0,81.78,89V81.55a1.89,1.89,0,0,0-1.89-1.89Z" style="fill:#82b1ff"/></svg>