<svg xmlns="http://www.w3.org/2000/svg" width="165.886" height="98.314" viewBox="0 0 165.886 98.314">
  <g id="Group_174" data-name="Group 174" transform="translate(-884 -843.686)">
    <g id="Group_172" data-name="Group 172" transform="translate(884 879.711)">
      <path id="Subtraction_5" data-name="Subtraction 5" d="M31.145,0A31.145,31.145,0,1,1,0,31.145,31.145,31.145,0,0,1,31.145,0Z" transform="translate(0 0)" fill="none"/>
      <path id="Subtraction_4" data-name="Subtraction 4" d="M31.145,62.289A31.153,31.153,0,0,1,19.022,2.447,31.152,31.152,0,0,1,43.267,59.841,30.949,30.949,0,0,1,31.145,62.289Zm0-57.043a25.9,25.9,0,1,0,25.9,25.9A25.928,25.928,0,0,0,31.145,5.245Z" transform="translate(0 0)" fill="#3671fe"/>
    </g>
    <g id="Group_171" data-name="Group 171" transform="translate(987.597 879.711)">
      <path id="Subtraction_5-2" data-name="Subtraction 5" d="M31.145,0A31.145,31.145,0,1,1,0,31.145,31.145,31.145,0,0,1,31.145,0Z" transform="translate(0 0)" fill="none"/>
      <path id="Subtraction_4-2" data-name="Subtraction 4" d="M31.145,62.289A31.153,31.153,0,0,1,19.022,2.447,31.152,31.152,0,0,1,43.267,59.841,30.949,30.949,0,0,1,31.145,62.289Zm0-57.043a25.9,25.9,0,1,0,25.9,25.9A25.928,25.928,0,0,0,31.145,5.245Z" transform="translate(0 0)" fill="#3671fe"/>
    </g>
    <g id="Group_170" data-name="Group 170" transform="translate(911.767 857.664)">
      <path id="Path_368" data-name="Path 368" d="M525.612,681.609a9.788,9.788,0,0,1,1.741-1.87l32.5-26.516-1.372-4.341s-.372-.656.552-.552c4.412.827,11.431,1.666,15.443-.552,4.99-2.758,14.89-8.562,20.82-11.52a96.46,96.46,0,0,1,13.329-5.15l2.074,5.15-23.831,32.59-11.992,16.4a7.379,7.379,0,0,1-1.55,1.392,5.675,5.675,0,0,1-2.83.51H532.922a7.4,7.4,0,0,1-2.193-.28c-1.207-.338-4.055-1.4-4.586-2.221S524.984,682.575,525.612,681.609Z" transform="translate(-525.349 -629.316)" fill="none" stroke="#7eaafe" stroke-linejoin="round" stroke-width="5"/>
      <path id="Path_369" data-name="Path 369" d="M576.149,658.846l13.085,37.822" transform="translate(-542.841 -638.867)" fill="none" stroke="#7eaafe" stroke-width="5"/>
      <path id="Path_374" data-name="Path 374" d="M595.443,550.408l38.125-52.12" transform="translate(-549.484 -495.067)" fill="none" stroke="#7eaafe" stroke-width="5"/>
      <path id="Path_373" data-name="Path 373" d="M675.673,681.825l-15.315-38.158-2.344-.911-.749-1.559-5.646-12.823" transform="translate(-568.827 -628.375)" fill="none" stroke="#7eaafe" stroke-linecap="round" stroke-linejoin="round" stroke-width="6"/>
    </g>
    <path id="Path_378" data-name="Path 378" d="M61.636,26.033a9.736,9.736,0,0,1,2.352.1,12.949,12.949,0,0,0,3.267-.261c.414-.152.545-.3.577-.447s0-.294-.207-.588a3.1,3.1,0,0,0-2.45-1.666,10.891,10.891,0,0,0-2.995,0,21.1,21.1,0,0,1-4.247.109c-.915-.109-2.461-.741-3.986-.958a8.451,8.451,0,0,0-4.051.327c-1.448.643-1.274,1.666-.937,2.178s1.514.871,4.531,2.069c1.481.588,2.908-.24,5.162-.621A17.991,17.991,0,0,1,61.636,26.033Z" transform="translate(885.462 844.214)" fill="#82b1ff"/>
    <path id="Path_377" data-name="Path 377" d="M339.282,821.926l2.148,1.115.087,1.419-3.946,2.512" transform="translate(652.478 24.457)" fill="none" stroke="#82b1ff" stroke-linecap="round" stroke-linejoin="round" stroke-width="4"/>
  </g>
</svg>
