<svg xmlns="http://www.w3.org/2000/svg" xmlns:xlink="http://www.w3.org/1999/xlink" width="156.504" height="98" viewBox="0 0 156.504 98">
  <defs>
    <clipPath id="clip-path">
      <rect id="Rectangle_10919" data-name="Rectangle 10919" width="58.845" height="51.966" fill="none"/>
    </clipPath>
    <clipPath id="clip-path-2">
      <rect id="Rectangle_10918" data-name="Rectangle 10918" width="119.567" height="71.302" transform="translate(0 0)" fill="none"/>
    </clipPath>
    <clipPath id="clip-path-3">
      <rect id="Rectangle_10921" data-name="Rectangle 10921" width="52.037" height="71.302" fill="none"/>
    </clipPath>
    <clipPath id="clip-path-4">
      <rect id="Rectangle_10920" data-name="Rectangle 10920" width="119.567" height="71.302" fill="none"/>
    </clipPath>
  </defs>
  <g id="folding-v7" transform="translate(0 7.048)">
    <path id="Path_380" data-name="Path 380" d="M128.235,38a27.4,27.4,0,1,0,27.4,27.4,27.4,27.4,0,0,0-27.4-27.4Zm0,44.633a17.223,17.223,0,1,0,0-.03Z" transform="translate(0.874 -1.838)" fill="#82b1ff"/>
    <path id="Path_381" data-name="Path 381" d="M27.4,38a27.4,27.4,0,1,0,27.4,27.365A27.4,27.4,0,0,0,27.4,38Zm0,44.633a17.222,17.222,0,1,0,0-.03Z" transform="translate(0 -1.838)" fill="#2979ff"/>
    <path id="Path_382" data-name="Path 382" d="M61.281,20.206a10.964,10.964,0,0,1,2.562.1,13.849,13.849,0,0,0,3.53-.272c.454-.171.6-.333.635-.484s0-.323-.222-.656a3.44,3.44,0,0,0-2.633-1.826,12.165,12.165,0,0,0-3.278,0,23.2,23.2,0,0,1-4.64.111c-1.009-.111-2.693-.807-4.347-1.009a9.189,9.189,0,0,0-4.428.353c-1.574.706-1.392,1.826-1.009,2.33s1.563.888,4.892,2.189c1.624.646,3.177-.262,5.649-.666a18.076,18.076,0,0,1,3.288-.171Z" transform="translate(0.4 -5.063)" fill="#2979ff"/>
    <g id="Group_176" data-name="Group 176" transform="translate(22.17 17.179)" clip-path="url(#clip-path)">
      <g id="Group_175" data-name="Group 175" transform="translate(0 -19.346)" clip-path="url(#clip-path-2)">
        <path id="Path_383" data-name="Path 383" d="M26.427,69.413a3.026,3.026,0,0,1-.837-.121,3.4,3.4,0,0,1-2.2-4.125,15.4,15.4,0,0,1,3.44-6.344c.252-.293.555-.615.867-.948a35.8,35.8,0,0,1,4.035-3.47l.2-.161c9.411-7.333,22.332-15.271,31.41-19.276,5.094-2.239,10.974-4.539,17.016-6.637a137.752,137.752,0,0,1,23.845-5.679c2.522-.424,4.912-.827,7.061-1.281a3.147,3.147,0,0,1,3.682,2.653,3.349,3.349,0,0,1-2.461,3.944c-2.29.484-4.741.9-7.333,1.331a130.483,130.483,0,0,0-22.876,5.417c-5.881,2.017-11.61,4.3-16.552,6.476-8.523,3.762-21.182,11.539-30.1,18.5l-.212.171a30.129,30.129,0,0,0-3.339,2.814l-.716.767a8.644,8.644,0,0,0-1.937,3.52,3.167,3.167,0,0,1-3,2.451Z" transform="translate(-21.969 0.185)" fill="#2979ff"/>
        <path id="Path_384" data-name="Path 384" d="M26.348,69.287a2.239,2.239,0,0,1,0-4.468l42.364-.313-10.6-40.9a2.259,2.259,0,0,1,1.452-2.754A2.088,2.088,0,0,1,62.145,22.4L73.493,66.119a2.37,2.37,0,0,1-.353,1.947,2.017,2.017,0,0,1-1.654.888l-45.128.333Z" transform="translate(-21.96 0.18)" fill="#2979ff"/>
        <path id="Path_385" data-name="Path 385" d="M79.1,30.408a1.009,1.009,0,0,1-.464-.111A32.429,32.429,0,0,0,71,27.372a48.154,48.154,0,0,0-9.159-.212,1.1,1.1,0,0,1-.1-2.2,49.263,49.263,0,0,1,9.623.232,33.74,33.74,0,0,1,8.251,3.137,1.15,1.15,0,0,1,.464,1.493A1.009,1.009,0,0,1,79.1,30.408Z" transform="translate(-21.644 0.215)" fill="#2979ff"/>
        <path id="Path_386" data-name="Path 386" d="M71.088,68.855h-.222A2.2,2.2,0,0,1,69,66.383c0-.484,1.2-11.811,2.431-18.287s4.932-14.283,5.043-14.616a2.017,2.017,0,0,1,2.814-1.009,2.32,2.32,0,0,1,.928,3.026c0,.071-3.641,7.767-4.731,13.506-1.2,6.274-2.37,17.752-2.38,17.863a2.138,2.138,0,0,1-2.017,1.987Z" transform="translate(-21.573 0.279)" fill="#2979ff"/>
        <path id="Path_387" data-name="Path 387" d="M128.376,63.439,113.992,29.527,111.41,24.02" transform="translate(-21.205 2.417)" fill="#82b1ff"/>
        <path id="Path_388" data-name="Path 388" d="M128.4,68.436a2.6,2.6,0,0,1-2.38-1.634L111.634,32.891l-2.542-5.4a2.885,2.885,0,0,1,1.16-3.752,2.552,2.552,0,0,1,3.52,1.271l2.582,5.5,14.424,34.012a2.875,2.875,0,0,1-1.3,3.7A2.441,2.441,0,0,1,128.4,68.436Z" transform="translate(-21.228 0.203)" fill="#82b1ff"/>
        <line id="Line_9" data-name="Line 9" x1="3.419" y1="18.378" transform="translate(86.15 3.883)" fill="#82b1ff"/>
        <path id="Path_389" data-name="Path 389" d="M110.823,23.917a1.6,1.6,0,0,1-1.543-1.352L105.87,4.2A1.684,1.684,0,0,1,107.1,2.18,1.584,1.584,0,0,1,108.947,3.5l3.419,18.368a1.684,1.684,0,0,1-1.241,2.017,1.543,1.543,0,0,1-.3.03Z" transform="translate(-21.254 0.019)" fill="#82b1ff"/>
      </g>
    </g>
    <g id="Group_178" data-name="Group 178" transform="translate(81.016 -2.168)" clip-path="url(#clip-path-3)">
      <g id="Group_177" data-name="Group 177" transform="translate(-58.845)" clip-path="url(#clip-path-4)">
        <path id="Path_390" data-name="Path 390" d="M26.427,69.413a3.026,3.026,0,0,1-.837-.121,3.4,3.4,0,0,1-2.2-4.125,15.4,15.4,0,0,1,3.44-6.344c.252-.293.555-.615.867-.948a35.8,35.8,0,0,1,4.035-3.47l.2-.161c9.411-7.343,22.332-15.271,31.41-19.276,5.094-2.239,10.974-4.539,17.016-6.647a138.54,138.54,0,0,1,23.845-5.669c2.522-.424,4.912-.827,7.061-1.281a3.147,3.147,0,0,1,3.682,2.653,3.349,3.349,0,0,1-2.461,3.944c-2.29.484-4.741.9-7.333,1.331a130.483,130.483,0,0,0-22.876,5.417C76.4,36.732,70.667,39,65.725,41.191c-8.523,3.762-21.182,11.539-30.1,18.5l-.212.161a31.268,31.268,0,0,0-3.339,2.824l-.716.767a8.674,8.674,0,0,0-1.937,3.51,3.167,3.167,0,0,1-3,2.461Z" transform="translate(-21.969 0.185)" fill="#82b1ff"/>
        <path id="Path_391" data-name="Path 391" d="M26.347,69.287a2.249,2.249,0,0,1,0-4.478l42.364-.3L58.11,23.6a2.249,2.249,0,0,1,1.452-2.754A2.088,2.088,0,0,1,62.145,22.4L73.492,66.119a2.37,2.37,0,0,1-.353,1.947,2.017,2.017,0,0,1-1.654.888l-45.128.333Z" transform="translate(-21.96 0.18)" fill="#82b1ff"/>
        <path id="Path_392" data-name="Path 392" d="M79.1,30.408a1.009,1.009,0,0,1-.464-.111A32.429,32.429,0,0,0,71,27.372a48.154,48.154,0,0,0-9.159-.212,1.1,1.1,0,0,1-.1-2.2,50.433,50.433,0,0,1,9.623.242,34.294,34.294,0,0,1,8.251,3.127,1.17,1.17,0,0,1,.464,1.5A1.009,1.009,0,0,1,79.1,30.408Z" transform="translate(-21.644 0.215)" fill="#2979ff"/>
        <path id="Path_393" data-name="Path 393" d="M71.088,68.855h-.222A2.209,2.209,0,0,1,69,66.383c0-.484,1.2-11.811,2.431-18.287s4.932-14.283,5.043-14.626a2.017,2.017,0,0,1,2.814-1.009,2.31,2.31,0,0,1,.928,3.026c0,.081-3.641,7.777-4.731,13.506-1.2,6.284-2.37,17.763-2.38,17.874a2.138,2.138,0,0,1-2.017,1.987Z" transform="translate(-21.573 0.279)" fill="#82b1ff"/>
        <path id="Path_394" data-name="Path 394" d="M128.376,63.428l-14.384-33.9L111.41,24.02" transform="translate(-21.205 2.417)" fill="#82b1ff"/>
        <path id="Path_395" data-name="Path 395" d="M128.4,68.436a2.6,2.6,0,0,1-2.38-1.644l-14.384-33.9-2.542-5.406a2.875,2.875,0,0,1,1.16-3.742,2.552,2.552,0,0,1,3.52,1.271l2.582,5.5,14.424,34.012a2.875,2.875,0,0,1-1.3,3.7,2.582,2.582,0,0,1-1.079.212Z" transform="translate(-21.228 0.203)" fill="#82b1ff"/>
        <line id="Line_10" data-name="Line 10" x1="3.419" y1="18.368" transform="translate(86.15 3.883)" fill="#82b1ff"/>
        <path id="Path_396" data-name="Path 396" d="M110.785,19.907a1.522,1.522,0,0,1-1.532-1.1L105.87,3.821a1.383,1.383,0,0,1,1.221-1.646,1.845,1.845,0,0,1,1.193.221,1.284,1.284,0,0,1,.639.857l3.394,14.983a1.378,1.378,0,0,1-1.231,1.646A1.21,1.21,0,0,1,110.785,19.907Z" transform="translate(-21.204 4.029)" fill="#82b1ff"/>
      </g>
    </g>
    <path id="Path_397" data-name="Path 397" d="M336.089,820.018a12.123,12.123,0,0,1,3.446.971c.13.222,1.442.72,0,2.093s-5.665,3.275-5.665,3.275" transform="translate(-230.714 -824.791)" fill="none" stroke="#82b1ff" stroke-linecap="round" stroke-width="4"/>
    <path id="Path_398" data-name="Path 398" d="M.03,0,.016,44.3v.242L.03,90.315" transform="translate(80.184 -1.368)" fill="none" stroke="#2979ff" stroke-linecap="round" stroke-width="4" stroke-dasharray="3 8"/>
  </g>
</svg>
