<svg xmlns="http://www.w3.org/2000/svg" width="151" height="97.996" viewBox="0 0 151 97.996">
  <g id="folding-v8" transform="translate(-3.344 7.048)">
    <path id="Path_382" data-name="Path 382" d="M61.281,20.206a10.964,10.964,0,0,1,2.562.1,13.849,13.849,0,0,0,3.53-.272c.454-.171.6-.333.635-.484s0-.323-.222-.656a3.44,3.44,0,0,0-2.633-1.826,12.165,12.165,0,0,0-3.278,0,23.2,23.2,0,0,1-4.64.111c-1.009-.111-2.693-.807-4.347-1.009a9.189,9.189,0,0,0-4.428.353c-1.574.706-1.392,1.826-1.009,2.33s1.563.888,4.892,2.189c1.624.646,3.177-.262,5.649-.666a18.076,18.076,0,0,1,3.288-.171Z" transform="translate(0.4 -5.063)" fill="#2979ff"/>
    <path id="Path_384" data-name="Path 384" d="M26.348,69.287a2.239,2.239,0,0,1,0-4.468l42.364-.313-10.6-40.9a2.259,2.259,0,0,1,1.452-2.754A2.088,2.088,0,0,1,62.145,22.4L73.493,66.119a2.37,2.37,0,0,1-.353,1.947,2.017,2.017,0,0,1-1.654.888l-45.128.333Z" transform="translate(0.21 -1.988)" fill="#2979ff"/>
    <path id="Subtraction_6" data-name="Subtraction 6" d="M-1095.5-788.57h0a3.024,3.024,0,0,1-.837-.121,3.4,3.4,0,0,1-2.2-4.126,15.477,15.477,0,0,1,3.44-6.344c.247-.286.539-.6.848-.927l.02-.021a35.885,35.885,0,0,1,4.035-3.469l.2-.162c9.443-7.357,22.359-15.283,31.41-19.275,5.092-2.238,10.9-4.507,16.8-6.561v7.054c-4.812,1.712-9.8,3.693-14.418,5.73-8.534,3.767-21.192,11.547-30.1,18.5l-.212.172a30.12,30.12,0,0,0-3.339,2.814l-.716.767a8.681,8.681,0,0,0-1.936,3.52A3.169,3.169,0,0,1-1095.5-788.57Z" transform="translate(1122.126 856)" fill="#2979ff"/>
    <path id="Subtraction_7" data-name="Subtraction 7" d="M-1096.547-789.034h-.222a2.2,2.2,0,0,1-1.866-2.471c0-.428,1.189-11.756,2.431-18.287a68.314,68.314,0,0,1,4.832-14.128c.118-.267.2-.443.211-.487a2.025,2.025,0,0,1,1.184-1.129,2.017,2.017,0,0,1,.681-.118,2.024,2.024,0,0,1,.95.238,2.331,2.331,0,0,1,.458.345v3.748a64.5,64.5,0,0,0-4.261,12.439c-1.206,6.3-2.371,17.762-2.38,17.863A2.141,2.141,0,0,1-1096.547-789.034Z" transform="translate(1168.234 856)" fill="#2979ff"/>
    <path id="Subtraction_8" data-name="Subtraction 8" d="M-1080.22-827.543l-.063,0h-.006a1.014,1.014,0,0,1-.458-.111l-.289-.155a20.268,20.268,0,0,0-7.436-2.584,28.73,28.73,0,0,0-5.458-.581c-1.089,0-2.131.076-3.338.163l-.274.02h-.034a1.081,1.081,0,0,1-1.076-1.008,1.1,1.1,0,0,1,.253-.808,1.1,1.1,0,0,1,.756-.382l.52-.039.045,0c1.236-.093,2.3-.173,3.45-.173a29.65,29.65,0,0,1,5.623.6,21.028,21.028,0,0,1,7.747,2.722l.489.265a1.153,1.153,0,0,1,.206.151v1.684A1.008,1.008,0,0,1-1080.22-827.543Z" transform="translate(1159.907 856)" fill="#2979ff"/>
    <path id="Subtraction_11" data-name="Subtraction 11" d="M-1122.672-803.355h0v-7.062l.218-.076a138.956,138.956,0,0,1,23.845-5.669c2.267-.38,4.836-.811,7.061-1.281a3.152,3.152,0,0,1,.565-.051,3.13,3.13,0,0,1,1.84.594,3.163,3.163,0,0,1,1.276,2.11,3.337,3.337,0,0,1-2.461,3.944c-2.2.465-4.525.861-7.332,1.331a130.81,130.81,0,0,0-22.877,5.416c-.7.24-1.418.491-2.133.745Z" transform="translate(1203.016 836.832)" fill="#82b1ff"/>
    <path id="Subtraction_10" data-name="Subtraction 10" d="M-1126.671-808.616V-810.3a1.167,1.167,0,0,1,.257,1.348,1,1,0,0,1-.256.335Z" transform="translate(1207.016 836.832)" fill="#82b1ff"/>
    <path id="Subtraction_9" data-name="Subtraction 9" d="M-1126.669-802.164h0v-3.752a2.3,2.3,0,0,1,.47,2.683c0,.011-.069.168-.185.427l0,.006C-1126.464-802.631-1126.558-802.417-1126.669-802.164Z" transform="translate(1207.016 836.832)" fill="#82b1ff"/>
    <path id="Path_395" data-name="Path 395" d="M128.4,68.436a2.6,2.6,0,0,1-2.38-1.644l-14.384-33.9-2.542-5.406a2.875,2.875,0,0,1,1.16-3.742,2.552,2.552,0,0,1,3.52,1.271l2.582,5.5,14.424,34.012a2.875,2.875,0,0,1-1.3,3.7,2.582,2.582,0,0,1-1.079.212Z" transform="translate(0.943 -1.964)" fill="#82b1ff"/>
    <line id="Line_10" data-name="Line 10" x1="3.419" y1="18.368" transform="translate(108.32 1.716)" fill="#82b1ff"/>
    <path id="Path_396" data-name="Path 396" d="M110.785,19.907a1.522,1.522,0,0,1-1.532-1.1L105.87,3.821a1.383,1.383,0,0,1,1.221-1.646,1.845,1.845,0,0,1,1.193.221,1.284,1.284,0,0,1,.639.857l3.394,14.983a1.378,1.378,0,0,1-1.231,1.646A1.21,1.21,0,0,1,110.785,19.907Z" transform="translate(0.967 1.862)" fill="#82b1ff"/>
    <path id="Path_397" data-name="Path 397" d="M336.089,820.018a12.123,12.123,0,0,1,3.446.971c.13.222,1.442.72,0,2.093s-5.665,3.275-5.665,3.275" transform="translate(-230.714 -824.791)" fill="none" stroke="#82b1ff" stroke-linecap="round" stroke-width="4"/>
    <path id="Path_398" data-name="Path 398" d="M.03,0,.016,44.3v.242L.03,90.315" transform="translate(80.184 -1.368)" fill="none" stroke="#2979ff" stroke-linecap="round" stroke-width="4" stroke-dasharray="3 8"/>
    <path id="Subtraction_14" data-name="Subtraction 14" d="M144,109a24.922,24.922,0,1,1,9.731-1.965A24.844,24.844,0,0,1,144,109Zm0-41a16,16,0,1,0,16,16A16.018,16.018,0,0,0,144,68Z" transform="translate(-115.656 -21.368)" fill="#2979ff"/>
    <path id="Subtraction_15" data-name="Subtraction 15" d="M144,109a24.922,24.922,0,1,1,9.731-1.965A24.844,24.844,0,0,1,144,109Zm0-41a16,16,0,1,0,16,16A16.018,16.018,0,0,0,144,68Z" transform="translate(-14.656 -21.368)" fill="#82b1ff"/>
  </g>
</svg>
