<svg xmlns="http://www.w3.org/2000/svg" viewBox="0 0 155.16 95.24"><title>Asset 25</title><path d="M128.35,42.86a25.57,25.57,0,1,0,25.56,25.57A25.56,25.56,0,0,0,128.35,42.86Zm0,41.57a16,16,0,1,1,16-16A16,16,0,0,1,128.35,84.43Z" style="fill:none;stroke:#2979ff;stroke-linecap:round;stroke-miterlimit:10;stroke-width:2.5px;stroke-dasharray:2,4"/><path d="M25.56,42.75A25.57,25.57,0,1,0,51.12,68.31,25.56,25.56,0,0,0,25.56,42.75Zm0,41.65A16.09,16.09,0,1,1,41.65,68.31,16.09,16.09,0,0,1,25.56,84.4Z" style="fill:#82b1ff"/><path d="M60,22.71a10.65,10.65,0,0,1,2.36.09,12.32,12.32,0,0,0,3.26-.26c.42-.16.55-.3.58-.44s0-.3-.2-.6a3.16,3.16,0,0,0-2.47-1.68,11.18,11.18,0,0,0-3,0,21.27,21.27,0,0,1-4.27.11c-.93-.11-2.49-.75-4-1a8.43,8.43,0,0,0-4.08.32c-1.45.65-1.27,1.68-.94,2.15s1.52.88,4.56,2.08c1.49.59,2.93-.24,5.21-.61A17,17,0,0,1,60,22.71Z" style="fill:#82b1ff"/><path d="M114.19,32.26l-.52-.86a2.93,2.93,0,0,0,.17-1" style="fill:none;stroke:#2979ff;stroke-linecap:round;stroke-miterlimit:10;stroke-width:2.5px"/><path d="M112.29,26.47a2,2,0,0,0-.87-.48l-.16-1" style="fill:none;stroke:#2979ff;stroke-linecap:round;stroke-miterlimit:10;stroke-width:2.5px"/><path d="M110.6,20.91,108.18,6.08a3,3,0,0,0,.14-2.44l0-.11a3.42,3.42,0,0,0-1.8-1.85l-.24-.11-3.62-.31a1.49,1.49,0,1,0-.26,3h.13" style="fill:none;stroke:#2979ff;stroke-linecap:round;stroke-miterlimit:10;stroke-width:2.5px;stroke-dasharray:2.0726065635681152,4.1452131271362305"/><path d="M104.55,4.42l.84.07a.66.66,0,0,1,.1.11,1.75,1.75,0,0,0-.26.29l-.52.32" style="fill:none;stroke:#2979ff;stroke-linecap:round;stroke-miterlimit:10;stroke-width:2.5px"/><path d="M101.77,7l-3.9,2.35a1.55,1.55,0,0,0-.68,1.93,1.48,1.48,0,0,0,1.36.89,1.51,1.51,0,0,0,.77-.21l3.78-2.27" style="fill:none;stroke:#2979ff;stroke-linecap:round;stroke-miterlimit:10;stroke-width:2.5px;stroke-dasharray:1.7139390707015991,3.4278781414031982"/><polyline points="104.57 8.77 105.42 8.26 105.58 9.25" style="fill:none;stroke:#2979ff;stroke-linecap:round;stroke-miterlimit:10;stroke-width:2.5px"/><line x1="106.21" y1="13.21" x2="107.78" y2="23.11" style="fill:none;stroke:#2979ff;stroke-linecap:round;stroke-miterlimit:10;stroke-width:2.5px;stroke-dasharray:2.0047879219055176,4.009575843811035"/><path d="M108.1,25.09l.15,1-1,.17" style="fill:none;stroke:#2979ff;stroke-linecap:round;stroke-miterlimit:10;stroke-width:2.5px"/><path d="M103.28,26.85c-2,.32-4.47.75-7.08,1.33-6.15,1.35-14.91,4.27-19.06,5.45-.73.21-2,1.07-2.16,1.83l.36,2.72a1.6,1.6,0,0,0,2,1.28c5-1.42,14.84-4.67,20.25-5.74,2.63-.52,5.72-.81,8-1" style="fill:none;stroke:#2979ff;stroke-linecap:round;stroke-miterlimit:10;stroke-width:2.5px;stroke-dasharray:2.017111301422119,4.034222602844238"/><path d="M107.65,32.49c.4,0,.74-.08,1-.13l.45.89" style="fill:none;stroke:#2979ff;stroke-linecap:round;stroke-miterlimit:10;stroke-width:2.5px"/><path d="M110.91,36.92,125.1,68.23a2.6,2.6,0,0,0,2.37,1.53,2.55,2.55,0,0,0,1.41-.42,2.73,2.73,0,0,0,.9-3.42L115.46,34.34l-.2-.34" style="fill:none;stroke:#2979ff;stroke-linecap:round;stroke-miterlimit:10;stroke-width:2.5px;stroke-dasharray:2.0460422039031982,4.0920844078063965"/><path d="M78.43,32.19h0a35.45,35.45,0,0,0-8.22-2.92A49.3,49.3,0,0,0,61.39,29l-.65-2.34a2.09,2.09,0,1,0-4,1.12L59.9,39.27A176,176,0,0,0,30.61,56.38l-.24.18a35.6,35.6,0,0,0-4,3.2l-.88.89a14.05,14.05,0,0,0-3.42,5.93,3.12,3.12,0,0,0,2.19,3.84,2.85,2.85,0,0,0,1.67,0l44.08-.29,0,0a1.81,1.81,0,0,0,.8-.19,1.59,1.59,0,0,0,.22-.13,2.22,2.22,0,0,0,.47-.39s.09-.06.12-.1,0-.09.06-.13a2.18,2.18,0,0,0,.25-.56,2.33,2.33,0,0,0,.07-.25s0-.06,0-.1,1.18-10.82,2.37-16.67a56,56,0,0,1,4-11Zm-49.34,34a8.43,8.43,0,0,1,1-1.22c.22-.23.47-.49.73-.74a29.93,29.93,0,0,1,3.28-2.63l.24-.17A172.87,172.87,0,0,1,61.59,45.37L67.3,65.94Zm41.3-15.47c-.39,1.93-.78,4.33-1.12,6.71L65.46,43.71c2.64-1.07,5.47-2.14,8.42-3.2A54.91,54.91,0,0,0,70.39,50.73ZM63.78,37.64,62,31.07a44.64,44.64,0,0,1,7.91.26,27.12,27.12,0,0,1,5.85,1.92C71.53,34.67,67.49,36.16,63.78,37.64Z" style="fill:#82b1ff"/><line x1="78.64" y1="14.23" x2="78.64" y2="61.27" style="fill:none;stroke:#2979ff;stroke-linecap:round;stroke-miterlimit:10;stroke-width:3px;stroke-dasharray:5,5"/></svg>