<svg xmlns="http://www.w3.org/2000/svg" viewBox="0 0 154.79 98.92"><title>Asset 22</title><path d="M129.08,46.21h-.65c-.42,0-.83,0-1.24.06h-.11a1,1,0,0,0-.92,1.07,1,1,0,0,0,1,.92h.08c.61-.05,1.23-.07,1.84-.07a1,1,0,0,0,0-2Zm-5.71.66a.91.91,0,0,0-.23,0c-.65.16-1.3.33-1.93.54a1,1,0,0,0,.31,2,1,1,0,0,0,.3,0c.58-.19,1.18-.35,1.78-.49a1,1,0,0,0-.23-2Zm-5.41,2a1,1,0,0,0-.45.1l-.43.23h-.47l0,0h0l0,0h0l0,0h0l0,0h0l0,0h0l0,0h0l0,0h0l0,0h0l0,0h0l0,0h0l0,0h-.27a1,1,0,0,0,.52,1.86,1,1,0,0,0,.52-.15c.53-.31,1.07-.61,1.61-.89a1,1,0,0,0,.45-1.34,1,1,0,0,0-.9-.55ZM113.16,52a1,1,0,0,0-.64.24h-.12l0,0h0l0,0h0c-.34.29-.66.58-1,.88h-.19l-.14.13a1,1,0,0,0,.7,1.72,1,1,0,0,0,.71-.29c.43-.43.89-.85,1.36-1.25a1,1,0,0,0-.65-1.76Zm-3.94,4.19a1,1,0,0,0-.8.41c-.36.49-.71,1-1,1.52h0l0,0h-.07a1,1,0,0,0,.32,1.38,1,1,0,0,0,.53.15,1,1,0,0,0,.85-.47c.32-.52.67-1,1-1.52a1,1,0,0,0-.21-1.4,1,1,0,0,0-.6-.2Zm-2.86,5a1,1,0,0,0-.92.61l0,0h0v0h0v0h0c-.23.55-.44,1.11-.64,1.68a1,1,0,0,0,.63,1.26,1,1,0,0,0,.32.06,1,1,0,0,0,1-.68c.19-.58.42-1.16.66-1.72a1,1,0,0,0-.53-1.32,1.09,1.09,0,0,0-.39-.08Zm-1.63,5.52a1,1,0,0,0-1,.83c-.11.65-.19,1.32-.26,2a1,1,0,0,0,.91,1.09h.09a1,1,0,0,0,1-.91c0-.61.13-1.23.24-1.83a1,1,0,0,0-.82-1.16Zm-.31,5.75h-.06a1,1,0,0,0-.94,1.06c0,.67.11,1.34.21,2a1,1,0,0,0,1,.86h.14a1,1,0,0,0,.86-1.13c-.09-.6-.15-1.22-.19-1.83a1,1,0,0,0-1-.94Zm1,5.66a1,1,0,0,0-.29,0,1,1,0,0,0-.66,1.25c.06.22.13.43.2.65h0v0h0v0h0v0h0v0h0v0h.07v0h.08v0h0v0h0v0h0v0h0v0h0v0h0v0H105v0h.08v0h0v0a1,1,0,0,0,.94.63,1.13,1.13,0,0,0,.36-.06,1,1,0,0,0,.57-1.3c-.23-.57-.43-1.16-.61-1.74a1,1,0,0,0-1-.71Zm2.31,5.27a.93.93,0,0,0-.5.14,1,1,0,0,0-.36,1.36c.34.58.7,1.14,1.08,1.69a1,1,0,0,0,1.39.25,1,1,0,0,0,.25-1.39q-.52-.77-1-1.56a1,1,0,0,0-.87-.49ZM111.22,88a1,1,0,0,0-.69.28,1,1,0,0,0,0,1.41l.74.75h0l0,0h0l0,0h.18l0,0h0l.43.4a1,1,0,0,0,.67.26,1,1,0,0,0,.75-.34,1,1,0,0,0-.08-1.41c-.46-.41-.9-.84-1.33-1.28a1,1,0,0,0-.72-.31Zm4.43,3.67a1,1,0,0,0-.84.46,1,1,0,0,0,.3,1.38h.13q.78.5,1.59.93a.89.89,0,0,0,.47.12,1,1,0,0,0,.48-1.87c-.54-.3-1.07-.61-1.58-1a1,1,0,0,0-.55-.16Zm5.16,2.55a1,1,0,0,0-.94.66,1,1,0,0,0,.61,1.28c.38.14.76.26,1.15.38h.21l.55.16a1.09,1.09,0,0,0,.26,0,1,1,0,0,0,1-.74,1,1,0,0,0-.71-1.23c-.59-.15-1.18-.34-1.75-.54a1.06,1.06,0,0,0-.34-.06Zm5.61,1.28a1,1,0,0,0-.11,2l.57,0h.28l1.15.06h0a1,1,0,0,0,0-2c-.62,0-1.24-.06-1.84-.13Zm7.65-.37-.2,0c-.6.13-1.21.23-1.82.3a1,1,0,0,0,.12,2h.13c.41-.05.81-.11,1.22-.18h.36l.39-.08a1,1,0,0,0-.2-2Zm5.46-1.8a1.06,1.06,0,0,0-.42.09c-.56.26-1.13.5-1.7.71a1,1,0,0,0,.35,1.94,1,1,0,0,0,.35-.06c.63-.24,1.24-.5,1.85-.78a1,1,0,0,0-.43-1.9Zm4.89-3a1,1,0,0,0-.62.22c-.48.38-1,.74-1.48,1.08a1,1,0,0,0-.27,1.39,1,1,0,0,0,.83.44.94.94,0,0,0,.55-.17l.41-.28h.31l0,0h0l.06,0h0c.27-.2.54-.4.8-.61a1,1,0,0,0-.63-1.78Zm4.07-4.08a1,1,0,0,0-.79.38c-.37.49-.78,1-1.19,1.41a1,1,0,0,0,.05,1.41,1,1,0,0,0,.68.27,1,1,0,0,0,.73-.32l.47-.52h0l0,0h0v0h0l0,0h.21l0,0h0l.08-.09h0l.24-.29h0l0,0h0v0h.13l.05-.06a1,1,0,0,0-.17-1.4,1,1,0,0,0-.62-.22Zm3-4.9a1,1,0,0,0-.91.58c-.26.56-.54,1.11-.84,1.64a1,1,0,0,0,.38,1.37,1,1,0,0,0,.49.12,1,1,0,0,0,.87-.5l.17-.31h0v0h.08v0h0c.23-.42.44-.85.64-1.28a1,1,0,0,0-.48-1.33.92.92,0,0,0-.42-.1Zm1.79-5.46a1,1,0,0,0-1,.8c-.12.6-.27,1.2-.44,1.79a1,1,0,0,0,.69,1.24,1.35,1.35,0,0,0,.28,0,1,1,0,0,0,1-.73l.12-.45h0v0h0v0h0v0h0v0h0v0h0v0h0v0h0v0h0v0h0v0h0v0h0v0h0c.09-.34.16-.67.23-1a1,1,0,0,0-.78-1.18l-.2,0Zm.48-5.74h0a1,1,0,0,0-1,1c0,.25,0,.51,0,.77s0,.72,0,1.07a1,1,0,0,0,.95,1.05h.05a1,1,0,0,0,1-1c0-.29,0-.59,0-.89h0v0h0v0h0v0h0v0h0v0h0v0h0c0-.16,0-.31,0-.46h0v0h0v-.06a1,1,0,0,0-1-1Zm-.85-5.69a.78.78,0,0,0-.26,0,1,1,0,0,0-.71,1.23c.17.59.3,1.19.42,1.79a1,1,0,0,0,1,.82l.19,0a1,1,0,0,0,.79-1.17q-.18-1-.45-2a1,1,0,0,0-1-.74Zm-2.15-5.33a1,1,0,0,0-.48.12,1,1,0,0,0-.4,1.36c.3.53.57,1.09.82,1.65a1,1,0,0,0,.92.59,1,1,0,0,0,.41-.09,1,1,0,0,0,.5-1.32c-.25-.55-.52-1.1-.8-1.63h0l0,0h0v0h0v0h0v0h0v0h0a1,1,0,0,0-.88-.52Zm-3.33-4.7a1,1,0,0,0-.67.26,1,1,0,0,0-.07,1.41c.41.46.81.93,1.18,1.42a1,1,0,0,0,1.4.18,1,1,0,0,0,.19-1.4c-.41-.53-.84-1-1.28-1.54a1,1,0,0,0-.75-.33Zm-4.32-3.8a1,1,0,0,0-.57,1.82c.51.35,1,.72,1.48,1.11a1,1,0,0,0,.63.23A1,1,0,0,0,145.3,52c-.17-.14-.34-.28-.52-.41h-.12l0,0h0c-.31-.24-.62-.46-.94-.68a1,1,0,0,0-.57-.18Zm-5.07-2.7a1,1,0,0,0-.94.64,1,1,0,0,0,.57,1.29c.57.22,1.14.47,1.69.74a1.13,1.13,0,0,0,.44.1,1,1,0,0,0,.9-.57,1,1,0,0,0-.47-1.33c-.23-.12-.47-.23-.71-.33h0l0,0h-1l-.06,0a.92.92,0,0,0-.36-.07Zm-5.57-1.45a1,1,0,0,0-1,.87,1,1,0,0,0,.85,1.12c.61.09,1.22.19,1.82.33l.21,0a1,1,0,0,0,.21-2l-.55-.11h-.33c-.36-.07-.72-.13-1.09-.18Zm-6,41.38a1,1,0,0,0-1,.85,1,1,0,0,0,.83,1.14,18.63,18.63,0,0,0,2.24.19h0a1,1,0,0,0,1-1,1,1,0,0,0-1-1c-.48,0-.95-.05-1.41-.1H127l-.34,0Zm-6-2.11a1,1,0,0,0-.51,1.87,19.78,19.78,0,0,0,2,1,.91.91,0,0,0,.39.08,1,1,0,0,0,.93-.61,1,1,0,0,0-.53-1.31l-.22-.09h-1l0,0h0l-.57-.31a1,1,0,0,0-.5-.14Zm-4.8-4.13a1.06,1.06,0,0,0-.63.21,1,1,0,0,0-.15,1.41,18.12,18.12,0,0,0,1.5,1.66,1,1,0,0,0,1.42,0,1,1,0,0,0,0-1.42c-.27-.26-.54-.54-.79-.83h0v0h0l0,0h0l0,0h0v0h-.39v0h0v0h0l0,0h0v0h0a1,1,0,0,0-.78-.37Zm-3-5.6a.92.92,0,0,0-.29,0,1,1,0,0,0-.66,1.25,18.88,18.88,0,0,0,.79,2.1,1,1,0,0,0,.92.59,1,1,0,0,0,.41-.09,1,1,0,0,0,.5-1.32c0-.1-.1-.21-.14-.31h0v0h-.36v0h0v0h0v0h0v0h0v0h0v0h0l0-.06h0c0-.12-.08-.24-.11-.36a1,1,0,0,0-1-.7Zm-.72-6.3a1,1,0,0,0-1,.93c0,.43-.05.87-.05,1.31s0,.62,0,.93a1,1,0,0,0,1,1h0a1,1,0,0,0,1-1h0v0h0v0h0v0h0v0h0v0h0v0h0v0h0v0h0v0h0v0h0v0h0v0h0v0h0v0h0v0h0v0h0v0h0v0h0v0h0v0h0v0h0v0h0v0h0v0h0v0h0v0h0v0a1,1,0,0,0-.92-1.07Zm1.62-6.13a1,1,0,0,0-.9.57,19.82,19.82,0,0,0-.84,2.09,1,1,0,0,0,.63,1.26.89.89,0,0,0,.32,0,1,1,0,0,0,1-.68,14.31,14.31,0,0,1,.75-1.85,1,1,0,0,0-.47-1.34,1.13,1.13,0,0,0-.44-.1Zm3.75-5.11a1,1,0,0,0-.69.27,18.42,18.42,0,0,0-1.54,1.64,1,1,0,0,0,.13,1.41,1,1,0,0,0,.64.23,1,1,0,0,0,.77-.36c.25-.3.51-.6.79-.88h0v0h.24v0h0l0,0h0l.3-.29a1,1,0,0,0,0-1.41,1,1,0,0,0-.73-.32Zm5.34-3.4a1,1,0,0,0-.37.07,17.16,17.16,0,0,0-2,1,1,1,0,0,0,.48,1.87,1.07,1.07,0,0,0,.49-.12l.7-.37h.23c.29-.14.58-.26.88-.38a1,1,0,0,0-.38-1.93ZM129,53.83h0a16.86,16.86,0,0,0-2.24.15,1,1,0,0,0,.13,2H127l.2,0h.19c.42-.05.83-.08,1.26-.09H129a1,1,0,0,0,1-1,1,1,0,0,0-1-1Zm4.21.49a1,1,0,0,0-.24,2,17.6,17.6,0,0,1,1.91.59.92.92,0,0,0,.36.07,1,1,0,0,0,.35-1.93,16.08,16.08,0,0,0-2.14-.67,1,1,0,0,0-.24,0ZM138.94,57a1,1,0,0,0-.82.42,1,1,0,0,0,.24,1.39h.22l0,0h.12c.42.31.81.64,1.2,1a1,1,0,0,0,.67.26,1,1,0,0,0,.67-1.74,16.86,16.86,0,0,0-1.75-1.41,1,1,0,0,0-.57-.18Zm4.41,4.54a1,1,0,0,0-.56.17,1,1,0,0,0-.28,1.39c.09.12.17.25.25.38h0v0h0v0h0l0,0h0v0h.4v0h0v0h0v0h0v0h0v0h0c.08.14.15.28.22.42a1,1,0,0,0,.9.55,1,1,0,0,0,.44-.1,1,1,0,0,0,.45-1.34,18.89,18.89,0,0,0-1.12-2,1,1,0,0,0-.83-.45Zm2.45,5.85a.75.75,0,0,0-.21,0,1,1,0,0,0-.77,1.19,15.85,15.85,0,0,1,.3,2,1,1,0,0,0,1,.92h.09a1,1,0,0,0,.91-1.08,18.57,18.57,0,0,0-.33-2.22,1,1,0,0,0-1-.79Zm.16,6.33a1,1,0,0,0-1,.84c-.08.5-.19,1-.31,1.48h0v0h0v0h0c0,.1-.05.2-.08.3a1,1,0,0,0,.68,1.24.86.86,0,0,0,.28,0,1,1,0,0,0,1-.72,17.8,17.8,0,0,0,.49-2.19,1,1,0,0,0-.82-1.15Zm-2.16,6a1,1,0,0,0-.87.49c-.2.34-.42.68-.65,1h0v0h0v0H142v0h0l0,0h0v0h0v0h0l0,0h0v0h0l0,0h0a1,1,0,0,0,.18,1.4,1,1,0,0,0,.61.21,1,1,0,0,0,.79-.39,19.53,19.53,0,0,0,1.27-1.85,1,1,0,0,0-.35-1.37,1,1,0,0,0-.51-.14Zm-4.19,4.75a1,1,0,0,0-.61.22l-.65.48h-.57l0,0h-.41a1,1,0,0,0,.51,1.86,1,1,0,0,0,.52-.15,17.83,17.83,0,0,0,1.85-1.27,1,1,0,0,0,.17-1.4,1,1,0,0,0-.79-.39ZM134,87.3a.92.92,0,0,0-.29,0h-.54l-.55.13h0l-.06,0h-.41l-.39.07a1,1,0,0,0,.17,2l.16,0a17.83,17.83,0,0,0,2.19-.5,1,1,0,0,0,.67-1.25,1,1,0,0,0-.95-.71Z" style="fill:#82b1ff"/><line x1="102.81" y1="4.75" x2="103.31" y2="4.79" style="fill:none;stroke:#82b1ff;stroke-linecap:round;stroke-miterlimit:10;stroke-width:3px"/><path d="M106.33,5.11a1.86,1.86,0,0,1,.91,1l.05.11a1.64,1.64,0,0,1-.37,1.66l-6.32,3.81" style="fill:none;stroke:#82b1ff;stroke-linecap:round;stroke-miterlimit:10;stroke-width:3px;stroke-dasharray:1.0141630172729492,3.0424892902374268"/><line x1="99.29" y1="12.44" x2="98.86" y2="12.7" style="fill:none;stroke:#82b1ff;stroke-linecap:round;stroke-miterlimit:10;stroke-width:3px"/><path d="M25.71,46.1A25.71,25.71,0,1,0,51.42,71.81,25.71,25.71,0,0,0,25.71,46.1Zm0,41.89A16.18,16.18,0,1,1,41.89,71.81,16.18,16.18,0,0,1,25.71,88Z" style="fill:#82b1ff"/><path d="M60.58,25.72a8.94,8.94,0,0,1,2.16.09,11.89,11.89,0,0,0,3-.24c.38-.14.5-.28.53-.41s0-.27-.19-.54a2.85,2.85,0,0,0-2.25-1.53,10,10,0,0,0-2.75,0,19.37,19.37,0,0,1-3.9.1c-.84-.1-2.26-.68-3.66-.88a7.76,7.76,0,0,0-3.72.3c-1.33.59-1.17,1.53-.86,2s1.39.8,4.16,1.9c1.36.54,2.67-.22,4.74-.57A16.52,16.52,0,0,1,60.58,25.72Z" style="fill:#82b1ff"/><path d="M78.87,35.48h0a35,35,0,0,0-8.27-2.94,49.87,49.87,0,0,0-8.86-.27l-.66-2.36A2.1,2.1,0,1,0,57,31L60.25,42.6A176.09,176.09,0,0,0,30.78,59.81l-.23.17a34.23,34.23,0,0,0-4,3.23l-.89.89a14.18,14.18,0,0,0-3.43,6,3.13,3.13,0,0,0,2.2,3.86,3,3,0,0,0,.83.12,3.51,3.51,0,0,0,.85-.14l44.33-.3h0a2,2,0,0,0,.81-.2,2.53,2.53,0,0,0,.22-.13,2,2,0,0,0,.47-.4s.09,0,.12-.1,0-.08.06-.12a2.1,2.1,0,0,0,.25-.57,1.82,1.82,0,0,0,.07-.25s0-.06,0-.1S73.71,60.84,74.9,55a57.31,57.31,0,0,1,4-11.05ZM29.26,69.68a8.51,8.51,0,0,1,1-1.23L31,67.7a30.08,30.08,0,0,1,3.29-2.63l.25-.18A173.64,173.64,0,0,1,62,48.73l5.73,20.69ZM70.79,54.12c-.39,1.94-.78,4.35-1.12,6.74l-3.83-13.8c2.65-1.07,5.49-2.15,8.46-3.21A55.2,55.2,0,0,0,70.79,54.12ZM64.15,41l-1.84-6.61a45.22,45.22,0,0,1,8,.26,26.86,26.86,0,0,1,5.88,1.93C71.94,38,67.87,39.47,64.15,41Z" style="fill:#82b1ff"/><path d="M114.84,35.54l-.52-.86a2.93,2.93,0,0,0,.17-1" style="fill:none;stroke:#82b1ff;stroke-linecap:round;stroke-miterlimit:10;stroke-width:2px"/><path d="M112.93,29.72a2,2,0,0,0-.87-.48l-.19-1" style="fill:none;stroke:#82b1ff;stroke-linecap:round;stroke-miterlimit:10;stroke-width:2px"/><path d="M111.14,24.61l-2.46-12.43a1.58,1.58,0,0,0-3.09.62l2.72,13.72" style="fill:none;stroke:#82b1ff;stroke-linecap:round;stroke-miterlimit:10;stroke-width:2px;stroke-dasharray:1.8585656881332397,3.7171313762664795"/><path d="M108.68,28.34l.19,1-1,.16" style="fill:none;stroke:#82b1ff;stroke-linecap:round;stroke-miterlimit:10;stroke-width:2px"/><path d="M104.26,30c-2.12.34-4.72.78-7.51,1.4-5.53,1.22-12.87,3.41-17.45,4.72" style="fill:none;stroke:#82b1ff;stroke-linecap:round;stroke-miterlimit:10;stroke-width:2px;stroke-dasharray:1.8368360996246338,3.6736721992492676"/><path d="M77.53,36.66l-1,.26,0,1" style="fill:none;stroke:#82b1ff;stroke-linecap:round;stroke-miterlimit:10;stroke-width:2px"/><path d="M76.66,41.89l0,1,1-.25" style="fill:none;stroke:#82b1ff;stroke-linecap:round;stroke-miterlimit:10;stroke-width:2px"/><path d="M81.2,41.62c5.2-1.53,12.41-3.71,17-4.6,2.72-.54,5.91-.84,8.26-1.06" style="fill:none;stroke:#82b1ff;stroke-linecap:round;stroke-miterlimit:10;stroke-width:2px;stroke-dasharray:1.8502326011657715,3.700465202331543"/><path d="M108.27,35.78l1-.13.45.89" style="fill:none;stroke:#82b1ff;stroke-linecap:round;stroke-miterlimit:10;stroke-width:2px"/><path d="M111.54,40.23l14.27,31.49a2.65,2.65,0,0,0,2.39,1.54,2.64,2.64,0,0,0,2.39-3.71L116.12,37.64l-.21-.35" style="fill:none;stroke:#82b1ff;stroke-linecap:round;stroke-miterlimit:10;stroke-width:2px;stroke-dasharray:2.0588748455047607,4.1177496910095215"/><line x1="78.87" y1="2" x2="78.84" y2="96.92" style="fill:none;stroke:#448aff;stroke-linecap:round;stroke-miterlimit:10;stroke-width:4px;stroke-dasharray:3,8"/></svg>