<svg xmlns="http://www.w3.org/2000/svg" viewBox="0 0 155.29 90.69"><title>Asset 24</title><path d="M129.08,38.77a25.71,25.71,0,1,0,25.71,25.71A25.72,25.72,0,0,0,129.08,38.77Zm0,41.8a16.1,16.1,0,1,1,16.1-16.09A16.1,16.1,0,0,1,129.08,80.57Z" style="fill:none;stroke:#2979ff;stroke-linecap:round;stroke-miterlimit:10;stroke-dasharray:1,2"/><path d="M25.71,38.66a25.71,25.71,0,1,0,25.71,25.7A25.71,25.71,0,0,0,25.71,38.66Zm0,41.88A16.18,16.18,0,1,1,41.89,64.36,16.17,16.17,0,0,1,25.71,80.54Z" style="fill:#82b1ff"/><path d="M60.34,18.5a10.25,10.25,0,0,1,2.38.09A12.91,12.91,0,0,0,66,18.33c.41-.16.55-.3.58-.45s0-.3-.21-.6a3.15,3.15,0,0,0-2.48-1.69,11.26,11.26,0,0,0-3,0,21.56,21.56,0,0,1-4.3.11c-.93-.1-2.5-.75-4-1a8.61,8.61,0,0,0-4.1.33c-1.46.66-1.29,1.69-1,2.16s1.53.89,4.58,2.09c1.51.6,3-.24,5.24-.62A16.94,16.94,0,0,1,60.34,18.5Z" style="fill:#82b1ff"/><path d="M114.58,27.67l-.26-.43a2.85,2.85,0,0,0,.13-.48" style="fill:none;stroke:#2979ff;stroke-linecap:round;stroke-miterlimit:10"/><path d="M114.2,24.65a6.36,6.36,0,0,0-.89-1.95" style="fill:none;stroke:#2979ff;stroke-linecap:round;stroke-miterlimit:10;stroke-dasharray:1.071354866027832,2.142709732055664"/><path d="M112.53,22a1.91,1.91,0,0,0-.47-.18l-.1-.49" style="fill:none;stroke:#2979ff;stroke-linecap:round;stroke-miterlimit:10"/><path d="M111.56,19.29,108.8,5.35a3,3,0,0,0,.14-2.45l0-.11A3.46,3.46,0,0,0,107.08.93l-.24-.11L103.2.51a1.5,1.5,0,1,0-.26,3l1.68.15" style="fill:none;stroke:#2979ff;stroke-linecap:round;stroke-miterlimit:10;stroke-dasharray:1.0287315845489502,2.0574631690979004"/><path d="M105.65,3.73l.34,0a.35.35,0,0,1,.11.11,2.44,2.44,0,0,0-.27.29l-.09.06" style="fill:none;stroke:#2979ff;stroke-linecap:round;stroke-miterlimit:10"/><path d="M104,5.25l-5.6,3.37a1.57,1.57,0,0,0-.69,1.94,1.51,1.51,0,0,0,1.38.89,1.54,1.54,0,0,0,.77-.21l4.85-2.92" style="fill:none;stroke:#2979ff;stroke-linecap:round;stroke-miterlimit:10;stroke-dasharray:0.9986303448677063,1.9972606897354126"/><polyline points="105.6 7.81 106.03 7.55 106.12 8.04" style="fill:none;stroke:#2979ff;stroke-linecap:round;stroke-miterlimit:10"/><line x1="106.5" y1="9.95" x2="108.58" y2="20.44" style="fill:none;stroke:#2979ff;stroke-linecap:round;stroke-miterlimit:10;stroke-dasharray:0.9722982048988342,1.9445964097976685"/><path d="M108.77,21.39l.1.49-.49.08" style="fill:none;stroke:#2979ff;stroke-linecap:round;stroke-miterlimit:10"/><path d="M106.38,22.27c-2.37.36-5.82.89-9.63,1.73-6.18,1.36-15,4.29-19.17,5.48-.74.21-2.06,1.08-2.17,1.84l.36,2.73a1.61,1.61,0,0,0,2,1.3c5.07-1.43,14.93-4.71,20.37-5.78,3.28-.64,7.25-.94,9.59-1.18" style="fill:none;stroke:#2979ff;stroke-linecap:round;stroke-miterlimit:10;stroke-dasharray:1.0142837762832642,2.0285675525665283"/><path d="M108.77,28.28l.49-.08.22.45" style="fill:none;stroke:#2979ff;stroke-linecap:round;stroke-miterlimit:10"/><path d="M110.37,30.43l1,2,14.42,31.82a2.63,2.63,0,0,0,2.39,1.54,2.53,2.53,0,0,0,1.41-.41,2.74,2.74,0,0,0,.91-3.44L116.12,30.2l-1-1.68" style="fill:none;stroke:#2979ff;stroke-linecap:round;stroke-miterlimit:10;stroke-dasharray:0.9927789568901062,1.9855579137802124"/><path d="M78.87,28h0A35.65,35.65,0,0,0,70.6,25.1a48,48,0,0,0-8.86-.27l-.66-2.36a2.1,2.1,0,1,0-4,1.13l3.21,11.56a176.7,176.7,0,0,0-29.47,17.2l-.23.18a35.18,35.18,0,0,0-4,3.22l-.89.9a14.18,14.18,0,0,0-3.43,6,3.14,3.14,0,0,0,2.2,3.86,3,3,0,0,0,.83.11,3.5,3.5,0,0,0,.85-.13l44.33-.31h0A2,2,0,0,0,71.3,66c.08,0,.14-.09.22-.14a1.75,1.75,0,0,0,.47-.39s.09-.06.12-.1,0-.09.06-.13a2,2,0,0,0,.25-.56,2.5,2.5,0,0,0,.07-.26.24.24,0,0,0,0-.09c0-.11,1.19-10.88,2.38-16.77a57.31,57.31,0,0,1,4-11ZM29.26,62.24a8.51,8.51,0,0,1,1-1.23c.22-.24.48-.49.74-.75a31.36,31.36,0,0,1,3.29-2.64l.25-.17A174.48,174.48,0,0,1,62,41.28L67.68,62ZM70.79,46.68C70.4,48.62,70,51,69.67,53.42l-3.83-13.8c2.65-1.08,5.49-2.16,8.46-3.22A55.56,55.56,0,0,0,70.79,46.68ZM64.15,33.52,62.31,26.9a46.3,46.3,0,0,1,8,.27,27.39,27.39,0,0,1,5.88,1.92C71.94,30.53,67.87,32,64.15,33.52Z" style="fill:#82b1ff"/><line x1="79.09" y1="9.97" x2="79.09" y2="57.28" style="fill:none;stroke:#2979ff;stroke-linecap:round;stroke-miterlimit:10;stroke-width:3px;stroke-dasharray:5,5"/></svg>