<svg xmlns="http://www.w3.org/2000/svg" viewBox="0 0 73.8 46.01"><title>Asset 20</title><path d="M61.55,21.45h-1a.51.51,0,0,0-.46.54.5.5,0,0,0,.5.46h0c.3,0,.61,0,.92,0a.48.48,0,0,0,.48-.39.5.5,0,0,0,.46.43c.3,0,.61.07.91.12h.08a.51.51,0,0,0,.5-.42.5.5,0,0,0-.42-.57l-.46-.07H63l-.4,0h0a.5.5,0,0,0-.49.4.5.5,0,0,0-.49-.44Zm-2.85.35-.12,0h-.11c-.21.06-.41.11-.61.18h-.24a.49.49,0,0,0-.32.63.5.5,0,0,0,.48.34l.16,0c.29-.09.58-.18.88-.25a.5.5,0,0,0-.12-1Zm-2.68,1a.53.53,0,0,0-.24.06c-.29.16-.58.33-.86.51a.5.5,0,0,0-.15.69.51.51,0,0,0,.42.23.53.53,0,0,0,.27-.08c.26-.17.52-.32.79-.47a.49.49,0,0,0,.21-.67.5.5,0,0,0-.44-.27Zm-2.35,1.65a.46.46,0,0,0-.33.13l-.16.15h0l0,0h0l-.47.48a.49.49,0,0,0,.36.84.51.51,0,0,0,.37-.15c.21-.23.43-.44.65-.65a.48.48,0,0,0,0-.7.5.5,0,0,0-.37-.17Zm-1.88,2.17a.52.52,0,0,0-.42.22c-.18.28-.36.56-.52.85a.49.49,0,0,0,.19.68.44.44,0,0,0,.24.07.49.49,0,0,0,.44-.26c.15-.26.31-.53.48-.78a.49.49,0,0,0-.13-.69.51.51,0,0,0-.28-.09Zm-1.3,2.56a.5.5,0,0,0-.47.33h0v0h0v0h0v0h0v0h0v0h0v0h0v0h0l0,.09h0v0h0v0h0v0h0v0h0v0h0v.06a.5.5,0,0,0,.35.62h.13a.49.49,0,0,0,.48-.37c.08-.29.17-.58.28-.87a.5.5,0,0,0-.3-.64l-.17,0ZM49.85,32a.51.51,0,0,0-.5.45c0,.17,0,.34,0,.51h0v0h0c0,.12,0,.24,0,.37a.52.52,0,0,0,.49.51h0a.5.5,0,0,0,.5-.49c0-.31,0-.62.06-.92A.51.51,0,0,0,49.9,32Zm.06,2.87h-.07a.51.51,0,0,0-.43.57h0v0h0l.06.33h0v0h0v0h0v0h0c0,.14.05.27.08.41a.5.5,0,0,0,.49.38h.11a.5.5,0,0,0,.38-.6c-.07-.3-.13-.6-.17-.9a.5.5,0,0,0-.49-.43Zm.74,2.77a.39.39,0,0,0-.18,0,.5.5,0,0,0-.28.65l0,.07h0v0h0c.11.25.22.5.35.74a.49.49,0,0,0,.44.27.59.59,0,0,0,.23-.05.5.5,0,0,0,.22-.67c-.14-.28-.27-.56-.38-.84a.51.51,0,0,0-.47-.31Zm1.41,2.5a.54.54,0,0,0-.3.1.51.51,0,0,0-.11.7l.27.35h0v0h0l0,0h.18v0h0l0,0h0l.06.07a.46.46,0,0,0,.37.17.49.49,0,0,0,.38-.82c-.2-.23-.39-.48-.57-.72a.52.52,0,0,0-.4-.21Zm2,2.1a.5.5,0,0,0-.32.88l.26.21h.1l.43.32a.52.52,0,0,0,.29.09.5.5,0,0,0,.29-.91c-.25-.17-.49-.36-.73-.56a.46.46,0,0,0-.32-.11Zm2.41,1.55a.51.51,0,0,0-.45.29.5.5,0,0,0,.24.66h.43l.49.2a.47.47,0,0,0,.17,0,.51.51,0,0,0,.47-.32.5.5,0,0,0-.29-.64c-.28-.11-.56-.23-.84-.37a.54.54,0,0,0-.22-.05Zm2.72.93a.5.5,0,0,0-.49.39.52.52,0,0,0,.39.6h0c.27.06.54.1.81.14h.2a.49.49,0,0,0,.49-.44.5.5,0,0,0-.43-.56c-.3,0-.61-.08-.91-.14Zm3.82.15h-.06c-.3,0-.61.06-.92.07a.5.5,0,0,0,0,1h.8l.22,0a.5.5,0,0,0-.06-1Zm2.78-.69a.35.35,0,0,0-.17,0c-.29.11-.58.2-.87.29a.5.5,0,0,0,.14,1l.13,0c.33-.09.64-.2,1-.32a.5.5,0,0,0-.19-1Zm2.54-1.34a.45.45,0,0,0-.29.09c-.25.17-.51.34-.77.49a.51.51,0,0,0-.18.69.49.49,0,0,0,.43.24.54.54,0,0,0,.25-.06l.27-.17h.06c.17-.11.34-.22.5-.34h0a.5.5,0,0,0-.29-.9Zm2.13-1.93a.49.49,0,0,0-.38.18q-.3.34-.63.66a.5.5,0,0,0,0,.71.47.47,0,0,0,.35.15.52.52,0,0,0,.35-.14c.24-.23.47-.48.69-.73a.49.49,0,0,0,0-.7.46.46,0,0,0-.33-.13ZM72,38.54a.5.5,0,0,0-.45.28c-.14.27-.29.54-.45.8a.51.51,0,0,0,.17.69.5.5,0,0,0,.68-.17c.15-.23.29-.48.42-.72h0v0h0l0,0h0l0,0a.5.5,0,0,0-.21-.67.53.53,0,0,0-.23-.06Zm1-2.69a.49.49,0,0,0-.49.39c-.07.29-.15.59-.24.88a.51.51,0,0,0,.32.63l.16,0a.49.49,0,0,0,.47-.35.65.65,0,0,0,0-.13h0v0h0v0h0v0h0v0h0v0h0v0h0v0h0v0h.07l0-.08a.5.5,0,0,0-.38-.6Zm.3-2.86h0a.51.51,0,0,0-.5.51v.21c0,.24,0,.48,0,.71a.5.5,0,0,0,.47.53h0a.5.5,0,0,0,.5-.47c0-.19,0-.39,0-.59h0v0h0v0h0v0h0v0h0v-.12h0a.49.49,0,0,0-.49-.48Zm-.41-2.84a.3.3,0,0,0-.13,0,.49.49,0,0,0-.35.61,8.82,8.82,0,0,1,.2.89.49.49,0,0,0,.49.41h.09a.5.5,0,0,0,.4-.58,2.93,2.93,0,0,0,0-.29h0v0h0l-.12-.5h0v0h0a.49.49,0,0,0-.48-.37Zm-1.08-2.66a.5.5,0,0,0-.24.06.51.51,0,0,0-.2.68c.15.27.29.55.42.82a.49.49,0,0,0,.45.3.54.54,0,0,0,.21-.05.5.5,0,0,0,.25-.66h0l0,0h0l0-.05h0l-.24-.48h0l0,0h0l0,0h0v0h0v0h-.06a.49.49,0,0,0-.44-.26Zm-1.69-2.32a.52.52,0,0,0-.35.14.49.49,0,0,0,0,.7c.21.23.41.46.6.7a.52.52,0,0,0,.39.19.51.51,0,0,0,.31-.11.5.5,0,0,0,.09-.7c-.21-.26-.43-.52-.66-.76a.52.52,0,0,0-.36-.16Zm-2.21-1.84a.51.51,0,0,0-.42.23.5.5,0,0,0,.15.69c.26.17.51.34.75.53a.5.5,0,0,0,.31.1.48.48,0,0,0,.39-.19A.5.5,0,0,0,69,24l-.06,0h-.1l0,0h0l-.32-.23h0l0,0h0l0,0h-.15l0,0h0l0,0a.5.5,0,0,0-.27-.08Zm-2.58-1.25a.5.5,0,0,0-.16,1c.29.1.58.21.85.33a.53.53,0,0,0,.2.05.51.51,0,0,0,.46-.3.49.49,0,0,0-.26-.66h0c-.29-.13-.59-.24-.89-.34a.45.45,0,0,0-.16,0Zm-5.87,19a.51.51,0,0,0-.49.37.5.5,0,0,0,.36.61,8.38,8.38,0,0,0,1.11.22h.06a.5.5,0,0,0,.5-.44.51.51,0,0,0-.43-.56,2.57,2.57,0,0,1-.4-.06H60l-.36-.09Zm-2.86-1.39a.5.5,0,0,0-.3.9c.3.22.62.43.94.62a.57.57,0,0,0,.25.06.5.5,0,0,0,.25-.93l-.15-.08h-.06c-.22-.14-.43-.28-.63-.43a.47.47,0,0,0-.3-.1ZM54.5,37.36a.45.45,0,0,0-.25.07.49.49,0,0,0-.18.68,7.31,7.31,0,0,0,.64.93.47.47,0,0,0,.39.2.51.51,0,0,0,.31-.11.49.49,0,0,0,.08-.7,8,8,0,0,1-.56-.83.49.49,0,0,0-.43-.24Zm-1-3h-.07a.5.5,0,0,0-.42.57,8.27,8.27,0,0,0,.23,1.1.49.49,0,0,0,.48.37.3.3,0,0,0,.13,0,.49.49,0,0,0,.35-.61A7.25,7.25,0,0,1,54,35h0v0h0v0h0v-.06a.51.51,0,0,0-.5-.43Zm.18-3.17a.5.5,0,0,0-.49.38,9.9,9.9,0,0,0-.21,1.11.5.5,0,0,0,.44.55h.06a.51.51,0,0,0,.5-.45h0v0h0v0h0v0h0v0h0v0h0c0-.14.05-.27.08-.4h0v0h0a.5.5,0,0,0-.36-.61ZM55,28.32a.51.51,0,0,0-.41.2,9.56,9.56,0,0,0-.61.95.49.49,0,0,0,.19.68.44.44,0,0,0,.24.07.51.51,0,0,0,.44-.26l.07-.12h.14v0h0a2.33,2.33,0,0,1,.17-.26h.07v0h0a.76.76,0,0,1,.08-.11.5.5,0,0,0-.11-.7.53.53,0,0,0-.29-.1Zm2.35-2.12a.48.48,0,0,0-.26.07,8.39,8.39,0,0,0-.92.64.5.5,0,0,0,.31.89.49.49,0,0,0,.31-.11h.4l.16-.11h0l0,0h.13l.11-.07a.5.5,0,0,0,.17-.68.49.49,0,0,0-.43-.24Zm3-1.07h-.07a10.44,10.44,0,0,0-1.11.24.5.5,0,0,0-.34.62.49.49,0,0,0,.48.36l.14,0,.26-.07h.62l.1,0a.5.5,0,0,0,.42-.57.51.51,0,0,0-.5-.42Zm2.12,0a.5.5,0,0,0-.05,1h.07a9.12,9.12,0,0,1,.91.17l.12,0a.5.5,0,0,0,.12-1,8.33,8.33,0,0,0-1.11-.2Zm3,1a.52.52,0,0,0-.44.26.51.51,0,0,0,.2.68,7.48,7.48,0,0,1,.84.54.54.54,0,0,0,.3.1.49.49,0,0,0,.4-.21.5.5,0,0,0-.11-.7,10.26,10.26,0,0,0-1-.61.5.5,0,0,0-.24-.06Zm2.43,2.05a.45.45,0,0,0-.31.11.49.49,0,0,0-.08.7l.08.1h.25v0h0l0,0h0v0h0v0h0l0,0h0v0h0l0,0h.08l0,.08a.5.5,0,0,0,.85-.52,9.71,9.71,0,0,0-.65-.93.5.5,0,0,0-.39-.18Zm1.47,2.81-.14,0a.51.51,0,0,0-.34.62l0,.07h0v0h0v0h0c0,.12.06.24.08.36h0v0h0v0h0c0,.08,0,.16,0,.25a.5.5,0,0,0,.49.42h.08a.5.5,0,0,0,.42-.57,8.33,8.33,0,0,0-.25-1.1.49.49,0,0,0-.48-.36Zm.28,3.16a.5.5,0,0,0-.49.45c0,.1,0,.2,0,.3h0v0h0v0h0v0h0v0h0v0h0v0h0c0,.12,0,.25-.08.38a.49.49,0,0,0,.37.6h.12a.49.49,0,0,0,.48-.38,8.45,8.45,0,0,0,.19-1.12.49.49,0,0,0-.44-.54Zm-.94,3a.5.5,0,0,0-.44.26l-.1.19h0v0h-.06v0h0c-.11.17-.22.34-.34.5h0v0h0a.51.51,0,0,0,.11.7.47.47,0,0,0,.3.1.52.52,0,0,0,.4-.21,8.58,8.58,0,0,0,.6-1,.49.49,0,0,0-.2-.67.5.5,0,0,0-.24-.06Zm-2,2.44a.54.54,0,0,0-.32.11l-.5.38H65.8l-.22.14a.51.51,0,0,0-.17.69.52.52,0,0,0,.43.24.5.5,0,0,0,.26-.08,8.47,8.47,0,0,0,.92-.65.5.5,0,0,0,.07-.71.48.48,0,0,0-.38-.18ZM63.9,41l-.14,0h0q-.45.12-.93.21a.5.5,0,0,0,.08,1H63a8.33,8.33,0,0,0,1.1-.25.5.5,0,0,0,.33-.62A.49.49,0,0,0,63.9,41Z" style="fill:#82b1ff"/><line x1="49.02" y1="1.68" x2="49.22" y2="1.7" style="fill:none;stroke:#82b1ff;stroke-linecap:round;stroke-miterlimit:10;stroke-width:1.5px"/><path d="M51.14,2.34v0a.79.79,0,0,1-.17.8L48.23,4.82" style="fill:none;stroke:#82b1ff;stroke-linecap:round;stroke-miterlimit:10;stroke-width:1.5px;stroke-dasharray:0.4310940206050873,2.1554698944091797"/><line x1="47.31" y1="5.37" x2="47.14" y2="5.48" style="fill:none;stroke:#82b1ff;stroke-linecap:round;stroke-miterlimit:10;stroke-width:1.5px"/><path d="M12.26,21.4A12.26,12.26,0,1,0,24.52,33.66,12.26,12.26,0,0,0,12.26,21.4Zm0,20A7.72,7.72,0,1,1,20,33.66,7.72,7.72,0,0,1,12.26,41.37Z" style="fill:#82b1ff"/><path d="M28.88,11.69a4.12,4.12,0,0,1,1,0,5.64,5.64,0,0,0,1.42-.12c.18-.07.24-.13.25-.19s0-.13-.09-.26a1.36,1.36,0,0,0-1.07-.73,5,5,0,0,0-1.31,0,8.83,8.83,0,0,1-1.86.05c-.4-.05-1.08-.33-1.75-.42a3.73,3.73,0,0,0-1.77.14c-.63.29-.56.73-.41.94a7.13,7.13,0,0,0,2,.9c.65.26,1.28-.1,2.27-.27A6.67,6.67,0,0,1,28.88,11.69Z" style="fill:#82b1ff"/><path d="M37.61,16.34h0a16.3,16.3,0,0,0-3.94-1.4,23.47,23.47,0,0,0-4.22-.13l-.32-1.13a1,1,0,1,0-1.92.54l1.53,5.51a84.17,84.17,0,0,0-14,8.21l-.12.08a17.34,17.34,0,0,0-1.9,1.54l-.42.42a6.75,6.75,0,0,0-1.64,2.85,1.5,1.5,0,0,0,1.05,1.84,1.37,1.37,0,0,0,.4,0,1.76,1.76,0,0,0,.4-.06l21.14-.15h0a1,1,0,0,0,.38-.1.6.6,0,0,0,.11-.06.79.79,0,0,0,.22-.19s0,0,.06,0,0,0,0-.06a1.23,1.23,0,0,0,.12-.26s0-.08,0-.13,0,0,0,0,.56-5.19,1.13-8a27.85,27.85,0,0,1,1.9-5.27ZM14,32.64a3.55,3.55,0,0,1,.46-.58l.35-.36a16,16,0,0,1,1.57-1.26l.12-.08a83.26,83.26,0,0,1,13.09-7.71l2.73,9.87Zm19.8-7.42c-.18.93-.37,2.08-.53,3.22l-1.83-6.58c1.27-.51,2.62-1,4-1.53A26.44,26.44,0,0,0,33.75,25.22ZM30.58,19l-.87-3.15a21.92,21.92,0,0,1,3.8.12,13.33,13.33,0,0,1,2.8.92C34.3,17.52,32.36,18.24,30.58,19Z" style="fill:#82b1ff"/><line x1="37.61" y1="0.38" x2="37.61" y2="0.58" style="fill:none;stroke:#82b1ff;stroke-linecap:round;stroke-miterlimit:10;stroke-width:0.75px"/><line x1="37.61" y1="2.56" x2="37.59" y2="44.44" style="fill:none;stroke:#82b1ff;stroke-linecap:round;stroke-miterlimit:10;stroke-width:0.75px;stroke-dasharray:0.3969746232032776,1.9848731756210327"/><line x1="37.59" y1="45.43" x2="37.59" y2="45.63" style="fill:none;stroke:#82b1ff;stroke-linecap:round;stroke-miterlimit:10;stroke-width:0.75px"/><path d="M54.77,16.38,54.51,16a1.64,1.64,0,0,0,.08-.5" style="fill:none;stroke:#82b1ff;stroke-linecap:round;stroke-miterlimit:10"/><path d="M53.86,13.61a.89.89,0,0,0-.43-.25l-.1-.49" style="fill:none;stroke:#82b1ff;stroke-linecap:round;stroke-miterlimit:10"/><path d="M52.79,10.14l-1-4.91a.75.75,0,0,0-1.48.29l1.2,6" style="fill:none;stroke:#82b1ff;stroke-linecap:round;stroke-miterlimit:10;stroke-dasharray:0.929749071598053,2.7892472743988037"/><path d="M51.81,12.91l.1.49-.49.08" style="fill:none;stroke:#82b1ff;stroke-linecap:round;stroke-miterlimit:10"/><path d="M48.34,14c-.69.13-1.43.27-2.21.44-2.42.53-5.89,1.81-8.24,2.62" style="fill:none;stroke:#82b1ff;stroke-linecap:round;stroke-miterlimit:10;stroke-dasharray:1.0383551120758057,3.115065336227417"/><path d="M36.41,17.52l-.48.14v.5" style="fill:none;stroke:#82b1ff;stroke-linecap:round;stroke-miterlimit:10"/><path d="M35.93,19.5V20l.48-.13" style="fill:none;stroke:#82b1ff;stroke-linecap:round;stroke-miterlimit:10"/><path d="M39.42,19.07C42,18.39,45,17.59,46.9,17.22c1-.2,2.18-.38,3.16-.51" style="fill:none;stroke:#82b1ff;stroke-linecap:round;stroke-miterlimit:10;stroke-dasharray:1.0381511449813843,3.1144535541534424"/><path d="M51.6,16.49l.49-.07.23.44" style="fill:none;stroke:#82b1ff;stroke-linecap:round;stroke-miterlimit:10"/><path d="M53.66,19.65l6.33,14a1.25,1.25,0,0,0,1.14.73,1.34,1.34,0,0,0,.51-.11,1.25,1.25,0,0,0,.62-1.66L55.53,17.73" style="fill:none;stroke:#82b1ff;stroke-linecap:round;stroke-miterlimit:10;stroke-dasharray:1.0307600498199463,3.092280149459839"/></svg>