<?xml version="1.0" encoding="utf-8"?>
<!-- Generator: Adobe Illustrator 23.0.3, SVG Export Plug-In . SVG Version: 6.00 Build 0)  -->
<svg version="1.1" id="Layer_1" xmlns="http://www.w3.org/2000/svg" xmlns:xlink="http://www.w3.org/1999/xlink" x="0px" y="0px"
	 viewBox="0 0 200 200" style="enable-background:new 0 0 200 200;" xml:space="preserve">
<style type="text/css">
	.st0{fill:#CCCCCC;}
	.st1{fill:#FFFFFF;stroke:#CCCCCC;stroke-miterlimit:10;}
	.st2{fill:#FFFFFF;}
	.st3{fill:#FFFFFF;stroke:#CCCCCC;stroke-width:0.5;stroke-miterlimit:10;}
	.st4{fill:#FFFFFF;stroke:#FFFFFF;stroke-width:0.5;stroke-miterlimit:10;}
</style>
<g>
	<circle class="st0" cx="100" cy="100" r="100"/>
</g>
<g>
	<path class="st3" d="M106.51,154.8v-2.66H95.75c-0.62,0-1.13-0.51-1.13-1.13s0.51-1.13,1.13-1.13h10.76v-6.24H99.8
		c-0.62,0-1.13-0.51-1.13-1.13s0.51-1.13,1.13-1.13h6.71v-6.24H99.8c-0.62,0-1.13-0.51-1.13-1.13c0-0.62,0.51-1.13,1.13-1.13h6.71
		v-6.24H99.8c-0.62,0-1.13-0.51-1.13-1.13c0-0.62,0.51-1.13,1.13-1.13h6.71v-6.24H95.75c-0.62,0-1.13-0.51-1.13-1.13
		c0-0.62,0.51-1.13,1.13-1.13h10.76v-6.24H99.8c-0.62,0-1.13-0.51-1.13-1.13c0-0.62,0.51-1.13,1.13-1.13h6.71v-6.24H99.8
		c-0.62,0-1.13-0.51-1.13-1.13c0-0.62,0.51-1.13,1.13-1.13h6.71v-6.24H99.8c-0.62,0-1.13-0.51-1.13-1.13s0.51-1.13,1.13-1.13h6.71
		v-6.24H95.75c-0.62,0-1.13-0.51-1.13-1.13s0.51-1.13,1.13-1.13h10.76v-6.24H99.8c-0.62,0-1.13-0.51-1.13-1.13s0.51-1.13,1.13-1.13
		h6.71v-6.24H99.8c-0.62,0-1.13-0.51-1.13-1.13s0.51-1.13,1.13-1.13h6.71v-6.24H99.8c-0.62,0-1.13-0.51-1.13-1.13
		c0-0.62,0.51-1.13,1.13-1.13h6.71v-6.24H95.75c-0.62,0-1.13-0.51-1.13-1.13c0-0.62,0.51-1.13,1.13-1.13h10.76V45.2
		c0-0.62-0.51-1.13-1.13-1.13H73.69c-0.62,0-1.13,0.51-1.13,1.13v109.6c0,0.62,0.51,1.13,1.13,1.13h31.69
		C106,155.93,106.51,155.42,106.51,154.8z"/>
	<path class="st4" d="M127.44,154.8c0-0.62-0.51-1.13-1.13-1.13h-3.32V46.33h3.32c0.62,0,1.13-0.51,1.13-1.13
		c0-0.62-0.51-1.13-1.13-1.13h-8.91c-0.62,0-1.13,0.51-1.13,1.13c0,0.62,0.51,1.13,1.13,1.13h3.32v107.33h-3.32
		c-0.62,0-1.13,0.51-1.13,1.13s0.51,1.13,1.13,1.13h8.91C126.94,155.93,127.44,155.42,127.44,154.8z"/>
</g>
</svg>
