<?xml version="1.0" encoding="utf-8"?>
<!-- Generator: Adobe Illustrator 23.0.2, SVG Export Plug-In . SVG Version: 6.00 Build 0)  -->
<svg version="1.1" id="Layer_1" xmlns="http://www.w3.org/2000/svg" xmlns:xlink="http://www.w3.org/1999/xlink" x="0px" y="0px"
	 viewBox="0 0 1979.52 143.62" style="enable-background:new 0 0 1979.52 143.62;" xml:space="preserve">
<style type="text/css">
	.st0{fill-rule:evenodd;clip-rule:evenodd;fill:#1565C0;}
	.st1{display:none;}
	.st2{display:inline;}
	.st3{fill:#29363C;}
	.st4{fill-rule:evenodd;clip-rule:evenodd;fill:#29363C;}
	.st5{opacity:0.95;fill-rule:evenodd;clip-rule:evenodd;fill:#29363C;enable-background:new    ;}
	.st6{fill-rule:evenodd;clip-rule:evenodd;}
	.st7{opacity:0.95;fill-rule:evenodd;clip-rule:evenodd;enable-background:new    ;}
	.st8{enable-background:new    ;}
</style>
<path class="st0" d="M809.5,36.83h81.43l-48.94,106.79c0,0,49.28,0,56.01,0c5.68,0,36.14-4.95,49.28-23.16
	c16.13-30.66,39.52-83.62,39.52-83.62s81.14-0.7,97.66-0.7C1110.75,36.14,1121,0,1121,0H824.35"/>
<path class="st0" d="M674.22,0c0,0-44.01,92.62-51.6,113.88s5.09,29.74,20.76,29.74h188.04l16.17-40.92H733.4
	c-3.09,0-9.08-3.49-4.09-14.67S770.92,0,770.92,0L674.22,0z"/>
<path class="st0" d="M494.16,64.22l28.9,1.5l-59.9,77.9c0,0,53.47,0,87.2,0c33.4,0,52.38-20.04,54.3-23.8
	c5.59-10.96,24.12-46.37,42.6-88c9.6-24.3-7.6-30.4-15.2-31.9h-92.2L494.16,64.22z"/>
<path class="st0" d="M0-0.2c0,0,1.4,32.9,29.8,34.4c24.9,1.5,25,2,25,2l29.75,107.42l119.05-0.12L323.2,36.2h21.6
	c0,0-31.8,59.2-35.8,70.8s1.9,36.58,34.3,36.6c32.4,0.02,107.2,0,107.2,0l26.2-61.5l-33.5-0.3L468.5,0L269.4,0l-99.5,85.7L152.3-0.2
	H0z"/>
<g class="st1">
	<g class="st2">
		<path class="st3" d="M1156.3,70.9c10.2,0,44.2,0,93.3-0.1l5-11.6c0,0,59.7,0.3,63.7,0.3c4.2,2.3,6.1,6.6,6,11.3
			c30.7,0,64.3,0,99.6-0.1c1.9-4.9,2.6-9.5,2.8-13.2h-264.3L1156.3,70.9z"/>
		<path class="st3" d="M1165.3,51.9c26.4,0,131.6-0.1,261.2-0.2c-0.1-1-0.3-1.9-0.4-2.6c-0.5-1-0.9-2-1.4-2.9h-254.5
			C1167.8,48.5,1166.2,50.5,1165.3,51.9z"/>
		<path class="st3" d="M1305.9,90.1c-9.2-0.7-64.5-0.3-64.5-0.3l0,0l5.6-13h-93.4l-10.6,23.3c28,0,127.3-0.1,249.7-0.2
			c14.8-6.8,23.3-15.1,28.1-23.1h-97.9C1320.6,83.3,1314.5,89.3,1305.9,90.1z"/>
		<path class="st3" d="M1420.6,40.5c-3.3-3.6-6.5-4.5-9.1-5.9c-4.1-2-32.9-2.6-32.9-2.6s-154.7,0.8-168.3,0.4l0,0
			c-15-0.4-25.7,3.5-33,8.2C1205.5,40.6,1301.3,40.5,1420.6,40.5z"/>
		<path class="st3" d="M1140.4,105.9l-31.9,70.4c0,0,204.5,0.3,223.6,0.3s41.3-10.5,50.8-23.1c1.9-1.6,23.1-22.3,8-47.7h-250.5
			V105.9z M1283.9,146.2c-16.4,0-64.9-0.3-64.9-0.3l0,0l14-32h63.7C1310.4,118,1300.3,146.2,1283.9,146.2z"/>
	</g>
	<g class="st2">
		<path class="st4" d="M1419.4,99.9c29.7,0,60.4,0,91.6,0l10.5-23.1h-91.9C1426.6,83.7,1423.1,91.6,1419.4,99.9z"/>
		<path class="st4" d="M1432.3,70.8c29.8,0,60.7,0,92.1,0l6-13.2H1438C1436.6,60.8,1434.7,65.4,1432.3,70.8z"/>
		<path class="st4" d="M1440.5,51.7c29.9,0,61,0,92.6,0l2.5-5.4H1444C1442.7,47.9,1441.5,49.7,1440.5,51.7z"/>
		<path class="st4" d="M1416.7,105.9c-15.2,34.1-32.1,71.6-32.1,71.6l91-0.3l32.6-71.3C1508.2,105.9,1416.7,105.9,1416.7,105.9z"/>
		<path class="st4" d="M1538.2,40.4l3.2-7c0,0-72.1-0.2-74.5-0.2c-1.5,0-9.5,1.9-16.8,7.3C1478.6,40.4,1508.2,40.4,1538.2,40.4z"/>
	</g>
	<g class="st2">
		<path class="st5" d="M1629.7,70.7l5.8-13.1h-92.4l-5.9,13.2C1567.9,70.7,1598.9,70.7,1629.7,70.7z"/>
		<path class="st5" d="M1652.2,70.7c34,0,67.6,0,99.8,0l24.7-13.1h-101.1L1652.2,70.7z"/>
		<path class="st5" d="M1638.2,51.6l2.4-5.4h-91.5c-1.5,1.8-2.2,3-2.2,3l-1.1,2.4C1576.3,51.7,1607.3,51.6,1638.2,51.6z"/>
		<path class="st5" d="M1622.2,87.4l4.7-10.6h-92.4l-10.3,23.1c57.7,0,116.6-0.1,172.7-0.1l43.4-23h-99.2L1622.2,87.4z"/>
		<path class="st5" d="M1809.3,40.3L1823,33h-103.6l-13.1,7.3C1741.6,40.3,1776.2,40.3,1809.3,40.3z"/>
		<polygon class="st5" points="1521.6,105.9 1489.6,177.5 1581.7,177.2 1608.9,111.9 1659.4,177.2 1768.5,177.2 1702.1,105.9 		"/>
		<path class="st5" d="M1686.2,51.6c34.8,0,69,0,101.8,0l10.1-5.3h-102.3L1686.2,51.6z"/>
		<path class="st5" d="M1643.2,40.4l3.3-7.3c0,0-53.5-0.3-73,0c-7.7,0-14,3.6-18.6,7.4C1584.1,40.4,1613.7,40.4,1643.2,40.4z"/>
	</g>
	<g class="st2">
		<path class="st4" d="M1817.8,51.6c81.8,0,152.3,0,197,0l2.1-5.4h-195.5C1819.9,48.2,1818.7,50,1817.8,51.6z"/>
		<path class="st4" d="M1806.1,76.8c-3.1,7-6.6,14.9-10.2,23c89.9,0,163.7,0,199.8,0.1l4-8.4l-104.4,0.1l6.3-14.7h-95.5V76.8z"/>
		<path class="st4" d="M1808.8,70.6c34.5,0,66.6,0,95.3,0l3.4-8h102.9l2-5.1h-197.7C1813.3,60.8,1811.2,65.3,1808.8,70.6z"/>
		<path class="st4" d="M1986.3,119.7l6.5-13.8h-199.7c-8.8,20.1-17.4,39.9-20.6,47.5c-6.5,19.4,9.4,24.4,16.9,24.1l0,0
			c7.5-0.3,172.6,0.2,172.6,0.2l14.1-29.2l-106.7-0.1l13.3-27.9L1986.3,119.7z"/>
		<path class="st4" d="M2019.2,40.3l3-7.7c0,0-155.3,0.3-169.6,0.3c-11.5-0.2-19.5,3.2-25,7.4C1905,40.3,1972.9,40.3,2019.2,40.3z"
			/>
	</g>
</g>
<g>
	<g>
		<path d="M1115.88,38.56c10.11,0,43.81,0,92.48-0.1l4.96-11.5c0,0,59.17,0.3,63.14,0.3c4.16,2.28,6.05,6.54,5.95,11.2
			c30.43,0,63.73,0,98.72-0.1c1.88-4.86,2.58-9.42,2.78-13.08h-261.97L1115.88,38.56z"/>
		<path d="M1124.8,19.72c26.17,0,130.44-0.1,258.9-0.2c-0.1-0.99-0.3-1.88-0.4-2.58c-0.5-0.99-0.89-1.98-1.39-2.87h-252.26
			C1127.28,16.35,1125.7,18.34,1124.8,19.72z"/>
		<path d="M1264.16,57.59c-9.12-0.69-63.93-0.3-63.93-0.3l0,0l5.55-12.89h-92.58L1102.7,67.5c27.75,0,126.18-0.1,247.5-0.2
			c14.67-6.74,23.09-14.97,27.85-22.9h-97.04C1278.73,50.85,1272.69,56.79,1264.16,57.59z"/>
		<path d="M1169.43,0c-14.87-0.4-25.5,3.87-32.73,8.52c27.95,0,122.91-0.1,241.15-0.1c-3.27-3.57-6.44-4.46-9.02-5.85
			c-4.06-1.98-32.61-2.58-32.61-2.58H1169.43z"/>
		<path d="M1100.12,73.25l-31.89,70.37c0,0,202.97,0,221.9,0s40.93-10.71,50.35-23.19c1.88-1.59,22.9-22.1,7.93-47.28h-248.29V73.25
			z M1242.36,113.19c-16.26,0-64.33-0.3-64.33-0.3l0,0l13.88-31.72h63.14C1268.62,85.24,1258.61,113.19,1242.36,113.19z"/>
	</g>
	<g>
		<path class="st6" d="M1378,66.7c29.7,0,60.4,0,91.6,0l10.5-23.1h-91.9C1385.2,50.5,1381.7,58.4,1378,66.7z"/>
		<path class="st6" d="M1390.9,37.6c29.8,0,60.7,0,92.1,0l6-13.2h-92.4C1395.2,27.6,1393.3,32.2,1390.9,37.6z"/>
		<path class="st6" d="M1399.1,18.5c29.9,0,61,0,92.6,0l2.5-5.4h-91.6C1401.3,14.7,1400.1,16.5,1399.1,18.5z"/>
		<path class="st6" d="M1375.47,72.32c-15.2,34.1-31.97,71.3-31.97,71.3l90.87,0l32.6-71.3
			C1466.97,72.32,1375.47,72.32,1375.47,72.32z"/>
		<path class="st6" d="M1496.8,7.2l3.29-7.2c0,0-72.19,0-74.59,0c-1.5,0-9.5,1.9-16.8,7.3C1437.2,7.2,1466.8,7.2,1496.8,7.2z"/>
	</g>
	<g>
		<path class="st7" d="M1588.3,37.7l5.8-13.1h-92.4l-5.9,13.2C1526.5,37.7,1557.5,37.7,1588.3,37.7z"/>
		<path class="st7" d="M1610.8,37.7c34,0,67.6,0,99.8,0l24.7-13.1h-101.1L1610.8,37.7z"/>
		<path class="st7" d="M1596.8,18.6l2.4-5.4h-91.5c-1.5,1.8-2.2,3-2.2,3l-1.1,2.4C1534.9,18.7,1565.9,18.6,1596.8,18.6z"/>
		<path class="st7" d="M1580.8,54.4l4.7-10.6h-92.4l-10.3,23.1c57.7,0,116.6-0.1,172.7-0.1l43.4-23h-99.2L1580.8,54.4z"/>
		<path class="st7" d="M1767.9,7.3l13.7-7.3H1678l-13.1,7.3C1700.2,7.3,1734.8,7.3,1767.9,7.3z"/>
		<polygon class="st7" points="1480.59,72.02 1448.59,143.62 1540.57,143.62 1567.89,78.02 1618.63,143.62 1727.77,143.62 
			1661.09,72.02 		"/>
		<path class="st7" d="M1644.8,18.6c34.8,0,69,0,101.8,0l10.1-5.3h-102.3L1644.8,18.6z"/>
		<path class="st7" d="M1601.8,7.4l3.3-7.4c0,0-53.31-0.03-72.93,0c-7.7,0-14.07,3.7-18.67,7.5C1542.7,7.4,1572.3,7.4,1601.8,7.4z"
			/>
	</g>
	<g>
		<path class="st6" d="M1828.28,114.62L1841.44,87l107.01-0.79l5.67-13.66h-201.36c-8.71,19.9-17.22,39.49-20.39,47.02
			c-6.43,19.2,9.3,24.06,16.86,24.05l180.98,0l11.99-28.9L1828.28,114.62z"/>
		<path class="st6" d="M1959.63,58.3l-103.31,0.1l6.24-14.55h-94.53v-0.1c-3.07,6.93-6.53,14.75-10.1,22.77
			c87.69,0,160.08,0,198.26,0.09L1959.63,58.3z"/>
		<path class="st6" d="M1973.94,13.46h-193.17c-1.48,1.98-2.67,3.76-3.56,5.35c80.68,0,150.25,0,194.52,0L1973.94,13.46z"/>
		<path class="st6" d="M1967.26,29.56l2.04-4.92h-195.16c-1.39,3.27-3.46,7.72-5.84,12.97c34.15,0,65.92,0,94.33,0l3.37-7.92h101.21
			L1967.26,29.56z"/>
		<path class="st6" d="M1979.52,0L1979.52,0c0,0-153.66,0-167.81,0c-11.38-0.2-19.36,3.46-24.81,7.62c76.51,0,143.63,0,189.46,0
			L1979.52,0z"/>
	</g>
</g>
<g class="st8">
	<path d="M1967.17,143.62c-6.54,0-11.84-4.86-11.84-10.86s5.3-10.86,11.84-10.86s11.84,4.86,11.84,10.86
		S1973.71,143.62,1967.17,143.62z M1967.17,123.49c-5.49,0-9.94,4.17-9.94,9.27s4.45,9.27,9.94,9.27c5.49,0,9.97-4.17,9.97-9.27
		S1972.66,123.49,1967.17,123.49z M1970.05,138.7l-2.98-4.86h-1.96v4.86h-1.8v-11.91h4.41c2.26,0,4.09,1.56,4.09,3.57
		c0,1.74-1.18,2.82-2.78,3.27l3.11,5.07H1970.05z M1967.53,128.26h-2.42v4.17h2.42c1.44,0,2.45-0.87,2.45-2.07
		C1969.98,129.16,1968.97,128.26,1967.53,128.26z"/>
</g>
<text transform="matrix(1.0902 0 0 1 1999.7001 179.2826)" style="display:none;enable-background:new    ; font-family:'DINPro-Black'; font-size:35.489px;">®</text>
</svg>
