<svg xmlns="http://www.w3.org/2000/svg" viewBox="0 0 404.23 29.45"><title>Asset 5</title><path d="M280.79,10.55H261.07a3.55,3.55,0,0,1-2.51,1.25l-13.12,0,.55-1.27H227l-1.14,2.53h51.66A12.76,12.76,0,0,0,280.79,10.55Z" style="fill:#1e88e5"/><path d="M262,9.3h19.81a8,8,0,0,0,1-2.35H262.15A3.46,3.46,0,0,1,262,9.3Z" style="fill:#1e88e5"/><path d="M229,6.09H247.9l.24-.55,12.93,0a2.07,2.07,0,0,1,.56.5h21.29A6.83,6.83,0,0,0,282.87,4H230s-.22.35-.3.52Z" style="fill:#1e88e5"/><path d="M225.05,14.91l-6.53,14.5h45.35A15.66,15.66,0,0,0,274.28,25c.35-.37,4.62-4.84,1.43-10.07Zm29,8.35h0c-3.32,0-13.17-.07-13.17-.07l2.83-6.53h12.93C259.47,17.5,257.41,23.26,254.09,23.26Z" style="fill:#1e88e5"/><polygon points="227.57 9.3 246.52 9.3 247.54 6.95 228.63 6.95 227.57 9.3" style="fill:#1e88e5"/><path d="M168.27,0l-3.05,7.56H182L172,29.42s10.29.07,11.47,0,7.43-.89,10.14-4.65c3.3-6.3,8.13-17.2,8.13-17.2s16.68-.14,20.07-.14c5.4,0,7.51-7.42,7.51-7.42Z" style="fill:#1e88e5;fill-rule:evenodd"/><path d="M137.48,0s-9,19-10.57,23.3,1,6.1,4.25,6.1h38.5L173,21H149.6c-.61,0-1.86-.72-.82-3s8.5-18,8.5-18Z" style="fill:#1e88e5;fill-rule:evenodd"/><path d="M109.87,0l-9.35,13.15,5.92.31L94.19,29.41h17.86c6.85,0,10.9-4,11.1-4.86s8-13.57,8.72-18c2-5-1.55-6.21-3.11-6.52Z" style="fill:#1e88e5;fill-rule:evenodd"/><path d="M0,0S.28,6.73,6.08,7a40.21,40.21,0,0,1,5.11.41l6.07,21.92H41.61L66.08,7.45h4.43S64,19.55,63.18,21.93s.36,7.59,7,7.48,21.93,0,21.93,0l5.35-12.58-6.84-.06L95.78,0,55.07.05,34.73,17.56,31.14.06Z" style="fill:#1e88e5;fill-rule:evenodd"/><path d="M301.82,10.55H283.2c-.36.81-.73,1.66-1.12,2.53h18.58Z" style="fill:#1e88e5;fill-rule:evenodd"/><path d="M283.77,9.3H302.4L303.48,7H284.8C284.5,7.65,284.15,8.44,283.77,9.3Z" style="fill:#1e88e5;fill-rule:evenodd"/><path d="M305,3.53,306.63.05l-14.57,0a6.27,6.27,0,0,0-5.71,3.46Z" style="fill:#1e88e5;fill-rule:evenodd"/><path d="M274.19,0H239.14a14.2,14.2,0,0,0-1.87.06h-1.16a6.28,6.28,0,0,0-5.71,3.46h52.39C281.72,2.21,279.32.05,274.19,0Z" style="fill:#1e88e5;fill-rule:evenodd"/><path d="M285.92,4.33c-.14.35-.4,1-.74,1.76h18.69L304.82,4H286.08C286,4.13,286,4.22,285.92,4.33Z" style="fill:#1e88e5;fill-rule:evenodd"/><path d="M281.27,15c-3.07,6.89-6.49,14.48-6.49,14.48l18.42,0L299.82,15Z" style="fill:#1e88e5;fill-rule:evenodd"/><polygon points="323.59 9.3 324.63 6.95 305.89 6.95 304.84 9.3 323.59 9.3" style="fill:#1e88e5;fill-rule:evenodd"/><polygon points="356.91 3.58 363.5 0.1 342.48 0.1 336.25 3.58 356.91 3.58" style="fill:#1e88e5;fill-rule:evenodd"/><polygon points="323.65 10.64 322.77 11.14 322.99 10.64 304.24 10.64 303.11 13.17 338.81 13.17 343.6 10.64 323.65 10.64" style="fill:#1e88e5;fill-rule:evenodd"/><polygon points="307.17 4.03 306.25 6.09 324.99 6.09 325.91 4.03 307.17 4.03" style="fill:#1e88e5;fill-rule:evenodd"/><polygon points="325.95 9.35 346.02 9.35 350.47 7 330.15 7 325.95 9.35" style="fill:#1e88e5;fill-rule:evenodd"/><polygon points="302.29 15 295.85 29.45 314.47 29.45 320.07 16.11 330.38 29.45 352.51 29.45 339.06 15 302.29 15" style="fill:#1e88e5;fill-rule:evenodd"/><polygon points="331.69 6.09 352.1 6.09 355.99 4.02 335.38 4.02 331.69 6.09" style="fill:#1e88e5;fill-rule:evenodd"/><path d="M326.06,3.53l1.6-3.48-14.58,0a6.28,6.28,0,0,0-5.71,3.46Z" style="fill:#1e88e5;fill-rule:evenodd"/><path d="M402.88,3.54,404.23.06h-34.4A7.37,7.37,0,0,0,363,3.54Z" style="fill:#1e88e5;fill-rule:evenodd"/><path d="M399.68,12l-21.17,0,.59-1.4H359.7l-1.12,2.53h40.56Z" style="fill:#1e88e5;fill-rule:evenodd"/><path d="M360.27,9.3h19.38l1-2.35H361.33Z" style="fill:#1e88e5;fill-rule:evenodd"/><path d="M402.69,4h-40l0,.05c-.14.25-.48,1-.95,2H401.9" style="fill:#1e88e5;fill-rule:evenodd"/><path d="M397,17.71l1.3-2.76H357.78C356,19,354.26,23,353.61,24.54c-1.31,3.93,1.9,4.95,3.43,4.88h0l35,0,2.86-5.93H373.25l2.7-5.66Z" style="fill:#1e88e5;fill-rule:evenodd"/></svg>