<svg xmlns="http://www.w3.org/2000/svg" viewBox="0 0 155.17 124.94"><title>Asset 16</title><path d="M75.67,100.23a.5.5,0,0,1-.5-.5V82.88A10.77,10.77,0,0,1,61.74,66.66a9,9,0,0,1-.56-3.12,9.14,9.14,0,0,1,6.57-8.7,8.79,8.79,0,0,1,17.55,0,9.15,9.15,0,0,1,6.58,8.7,9,9,0,0,1-.56,3.12A10.77,10.77,0,0,1,82.85,84.1a10.7,10.7,0,0,1-5-1.22V99.73a.5.5,0,0,1-.5.5Zm2.22-20.58A8,8,0,0,0,88.73,67.84a1.37,1.37,0,0,1-.22-1.53,6.31,6.31,0,0,0-4.78-9,1.39,1.39,0,0,1-1.16-1.48c0-.15,0-.28,0-.43a6.07,6.07,0,0,0-12.13,0c0,.14,0,.28,0,.42a1.37,1.37,0,0,1-1.16,1.49,6.34,6.34,0,0,0-5.42,6.25,6.26,6.26,0,0,0,.65,2.77,1.39,1.39,0,0,1-.23,1.53A8,8,0,0,0,75.17,79.65v-5a8.1,8.1,0,0,1-6.77-8,1.36,1.36,0,1,1,2.72,0,5.41,5.41,0,0,0,4,5.19V58a1.36,1.36,0,0,1,2.72,0v7.35a4.27,4.27,0,0,0,3-4.06,1.37,1.37,0,0,1,2.73,0,7,7,0,0,1-5.68,6.87v7.68a5.4,5.4,0,0,0,4-5.19,1.37,1.37,0,0,1,2.73,0,8.1,8.1,0,0,1-6.77,8Z" style="fill:#82b1ff"/><path d="M77.39,99.73V82A10.27,10.27,0,0,0,90.74,66.75a8.25,8.25,0,0,0,.64-3.21,8.59,8.59,0,0,0-6.56-8.31,8.29,8.29,0,0,0-16.58,0,8.59,8.59,0,0,0-6.56,8.31,8.39,8.39,0,0,0,.63,3.21A10.27,10.27,0,0,0,75.66,82V99.73Zm0-19.84V78.18a7.63,7.63,0,0,0,6.77-7.55.87.87,0,0,0-1.73,0,5.87,5.87,0,0,1-5,5.8V67.72a6.53,6.53,0,0,0,5.68-6.45.87.87,0,0,0-1.73,0,4.81,4.81,0,0,1-4,4.71V58a.87.87,0,0,0-1.73,0V72.49a5.88,5.88,0,0,1-5-5.8.86.86,0,1,0-1.72,0,7.62,7.62,0,0,0,6.76,7.55v5.65A8.54,8.54,0,0,1,64,67.49a.85.85,0,0,0,.14-1,6.8,6.8,0,0,1,5.15-9.74.87.87,0,0,0,.74-.92c0-.16,0-.32,0-.49a6.57,6.57,0,0,1,13.13,0c0,.16,0,.31,0,.46a.89.89,0,0,0,.73.95A6.82,6.82,0,0,1,89,66.53a.85.85,0,0,0,.14,1,8.54,8.54,0,0,1-11.71,12.4Z" style="fill:#82b1ff"/><path d="M1.88,123.44a.38.38,0,0,1-.38-.38v-26c5.49-1.57,30.35-8.54,39.41-9h.47c3.49,0,9.6,1.55,16.07,3.2C64.66,93.14,72.11,95,77,95a12.5,12.5,0,0,0,2.69-.25c2.85-.61,7.28-2.88,11.56-5.08,3.59-1.84,7.3-3.75,9.49-4.34a26.48,26.48,0,0,1,7.09-1.05c5.07,0,8.9,1.79,13.75,4.06,2.45,1.15,5.22,2.44,8.43,3.6,13,4.68,19.78,5.66,23.2,5.66h.42v25.42a.38.38,0,0,1-.38.38Z" style="fill:#82b1ff"/><path d="M107.87,85.82h0c4.74,0,8.43,1.73,13.11,3.92,2.48,1.16,5.29,2.47,8.56,3.65,12,4.31,18.81,5.53,22.63,5.72v22.83H3V98.22c7.08-2,29.57-8.2,38-8.61h.4c3.3,0,9.6,1.6,15.7,3.16,7.3,1.86,14.84,3.78,20,3.78a14.27,14.27,0,0,0,3-.28c3-.65,7.36-2.87,11.93-5.22,3.52-1.8,7.16-3.67,9.19-4.23a25.58,25.58,0,0,1,6.7-1m0-3a28.19,28.19,0,0,0-7.49,1.1c-4.95,1.35-15.94,8.33-21,9.41a12.11,12.11,0,0,1-2.38.21c-9.1,0-28-6.94-35.66-6.94h-.55C30.38,87.12,0,96,0,96v27.1a1.88,1.88,0,0,0,1.88,1.88H153.29a1.88,1.88,0,0,0,1.88-1.88V96a6.7,6.7,0,0,1-1.91.18c-2.87,0-9.42-.78-22.7-5.57-9.3-3.35-14.53-7.75-22.69-7.75Z" style="fill:#82b1ff"/><path d="M69.44,46.33a1.65,1.65,0,0,1-.24-1.56,15.83,15.83,0,0,0,.86-5.16A16.09,16.09,0,0,0,58.82,24.34,1.57,1.57,0,0,1,57.73,23a15.52,15.52,0,0,0-30.91,0,1.58,1.58,0,0,1-1.1,1.37A16.09,16.09,0,0,0,14.48,39.61a15.58,15.58,0,0,0,.87,5.16,1.68,1.68,0,0,1-.25,1.56A19.21,19.21,0,0,0,28,77l2.27-1.4,11-3.13,10.18,2.34,2.85,2.36A19.21,19.21,0,0,0,69.44,46.33Z" style="fill:#fff"/><path d="M43.89,106.39V74.19a19.21,19.21,0,0,0,25-28.57,15.89,15.89,0,0,0,1.18-6A16.07,16.07,0,0,0,57.78,24.06a15.51,15.51,0,0,0-31,0A16.08,16.08,0,0,0,14.48,39.61a15.71,15.71,0,0,0,1.19,6,19.21,19.21,0,0,0,25,28.57v32.2a.94.94,0,0,0,.94.94H43A.94.94,0,0,0,43.89,106.39Zm0-36.19V67A14.26,14.26,0,0,0,56.55,52.88a1.62,1.62,0,1,0-3.23,0,11,11,0,0,1-9.43,10.86V47.43A12.22,12.22,0,0,0,54.51,35.36a1.62,1.62,0,0,0-3.23,0,9,9,0,0,1-7.39,8.81v-15a1.62,1.62,0,1,0-3.23,0V56.36A11,11,0,0,1,31.23,45.5a1.62,1.62,0,0,0-3.23,0A14.25,14.25,0,0,0,40.66,59.62V70.2A16,16,0,0,1,18.75,47,1.63,1.63,0,0,0,19,45.2a12.6,12.6,0,0,1-1.31-5.59A12.83,12.83,0,0,1,28.66,27,1.62,1.62,0,0,0,30,25.26c0-.3-.05-.61-.05-.92a12.29,12.29,0,0,1,24.57,0c0,.3,0,.58-.05.87A1.67,1.67,0,0,0,55.89,27,12.74,12.74,0,0,1,65.53,45.2,1.61,1.61,0,0,0,65.8,47,16,16,0,0,1,43.89,70.2Z" style="fill:#82b1ff"/><circle cx="126.46" cy="15.46" r="15.46" style="fill:#82b1ff"/></svg>