<svg xmlns="http://www.w3.org/2000/svg" width="170.036" height="99.814" viewBox="0 0 170.036 99.814">
  <g id="Group_173" data-name="Group 173" transform="translate(-601.5 -844.686)">
    <g id="Group_166" data-name="Group 166" transform="translate(603 880.279)">
      <path id="Subtraction_5" data-name="Subtraction 5" d="M31.361,0A31.361,31.361,0,1,1,0,31.361,31.361,31.361,0,0,1,31.361,0Z" transform="translate(0 0)" fill="none" stroke="#3671fe" stroke-linecap="round" stroke-width="3" stroke-dasharray="2 8"/>
      <path id="Subtraction_4" data-name="Subtraction 4" d="M31.361,62.721A31.369,31.369,0,0,1,19.154,2.464,31.369,31.369,0,0,1,43.568,60.256,31.164,31.164,0,0,1,31.361,62.721Zm0-54.138A22.778,22.778,0,1,0,54.138,31.36,22.8,22.8,0,0,0,31.361,8.583Z" transform="translate(0 0)" fill="#3671fe"/>
    </g>
    <g id="Group_167" data-name="Group 167" transform="translate(707.315 880.279)">
      <path id="Subtraction_5-2" data-name="Subtraction 5" d="M31.361,0A31.361,31.361,0,1,1,0,31.361,31.361,31.361,0,0,1,31.361,0Z" transform="translate(0 0)" fill="none" stroke="#3671fe" stroke-linecap="round" stroke-width="3" stroke-dasharray="2 8"/>
      <path id="Subtraction_4-2" data-name="Subtraction 4" d="M31.361,62.721A31.369,31.369,0,0,1,19.154,2.464,31.369,31.369,0,0,1,43.568,60.256,31.164,31.164,0,0,1,31.361,62.721Zm0-54.138A22.778,22.778,0,1,0,54.138,31.36,22.8,22.8,0,0,0,31.361,8.583Z" transform="translate(0 0)" fill="#3671fe"/>
    </g>
    <g id="Group_169" data-name="Group 169" transform="translate(630.96 858.739)">
      <path id="Path_368" data-name="Path 368" d="M525.614,681.959a9.854,9.854,0,0,1,1.753-1.883l32.729-26.7-1.381-4.371s-.374-.661.555-.555c4.443.833,11.51,1.677,15.55-.555,5.024-2.777,14.994-8.622,20.964-11.6a97.134,97.134,0,0,1,13.421-5.186l2.089,5.186-24,32.816-12.075,16.513a7.434,7.434,0,0,1-1.561,1.4,5.714,5.714,0,0,1-2.849.513H532.975a7.448,7.448,0,0,1-2.209-.282c-1.215-.34-4.083-1.41-4.618-2.236S524.982,682.932,525.614,681.959Z" transform="translate(-525.349 -629.304)" fill="none" stroke="#7eaafe" stroke-width="5"/>
      <path id="Path_369" data-name="Path 369" d="M576.149,658.846l13.176,38.084" transform="translate(-542.61 -638.728)" fill="none" stroke="#7eaafe" stroke-width="5"/>
      <path id="Path_374" data-name="Path 374" d="M595.443,550.77l38.389-52.481" transform="translate(-549.166 -495.044)" fill="none" stroke="#7eaafe" stroke-width="5"/>
      <path id="Path_373" data-name="Path 373" d="M675.839,682.2l-15.422-38.422-2.36-.917-.755-1.57-5.685-12.912" transform="translate(-568.253 -628.375)" fill="none" stroke="#7eaafe" stroke-linecap="round" stroke-linejoin="round" stroke-width="6"/>
    </g>
    <path id="Path_375" data-name="Path 375" d="M61.725,26.059a9.8,9.8,0,0,1,2.369.1,13.039,13.039,0,0,0,3.29-.263c.417-.154.548-.307.581-.45s0-.3-.208-.592a3.125,3.125,0,0,0-2.467-1.678,10.966,10.966,0,0,0-3.016,0,21.242,21.242,0,0,1-4.277.11c-.921-.11-2.478-.746-4.014-.965a8.51,8.51,0,0,0-4.079.329c-1.459.647-1.283,1.678-.943,2.193s1.524.877,4.562,2.084c1.491.592,2.928-.241,5.2-.625A18.116,18.116,0,0,1,61.725,26.059Z" transform="translate(604.81 845.344)" fill="#82b1ff"/>
    <path id="Path_379" data-name="Path 379" d="M339.282,821.926l2.148,1.115.087,1.419-3.946,2.512" transform="translate(372.478 25.457)" fill="none" stroke="#82b1ff" stroke-linecap="round" stroke-linejoin="round" stroke-width="4"/>
  </g>
</svg>
