<svg xmlns="http://www.w3.org/2000/svg" viewBox="0 0 91.72 108.66"><defs><style>.cls-1{fill:#82b1ff;}.cls-2{fill:#448aff;}</style></defs><title>Asset 5</title><g id="Layer_2" data-name="Layer 2"><g id="Layer_3" data-name="Layer 3"><path class="cls-1" d="M46,107.63l.53-6a63.52,63.52,0,0,0,9,.49l-.46,6A69.56,69.56,0,0,1,46,107.63Z"/><path class="cls-1" d="M62.85,101.08a17.15,17.15,0,0,0,7.27-3.32l3.67,4.7a27.2,27.2,0,0,1-9.72,4.4Z"/><path class="cls-1" d="M48.86,36.14c3.21-.21,6.62-.4,10-.4h.38v6.33h-.17c-3.24,0-6.42.19-9.66.4Z"/><path class="cls-1" d="M61.69,74.06c-1.35-.14-3-.14-4.82-.14a35.28,35.28,0,0,0-4.59-.2l.17-5.9c1.65.16,3.15.16,4.61.16,1.8.17,3.48.19,5,.2Z"/><path class="cls-1" d="M44.14,73.28A72.2,72.2,0,0,1,34.4,72l1.4-6a55.07,55.07,0,0,0,8.86,1.3Z"/><path class="cls-1" d="M26.61,69.43c-4.26-2.11-6.91-4.65-8.25-8l5.41-2.09c.88,1.83,2.58,3.33,5.29,4.66Z"/><path class="cls-1" d="M74.35,79.59a13,13,0,0,0-5.82-4.48l1.93-5.42a18.16,18.16,0,0,1,9,6.75Z"/><path class="cls-1" d="M74.48,93.08A15.31,15.31,0,0,0,76.25,86v-.64l6.35-.56V86a21.43,21.43,0,0,1-2.72,10.28Z"/><path class="cls-1" d="M17.67,52.21l0-.14a2.59,2.59,0,0,0,.12-.66c.76-3.36,2.82-6.2,6.29-8.66l3.32,4.9C25.16,49.37,24,51,23.59,52.88a2.06,2.06,0,0,1-.09.34v0Z"/><rect class="cls-1" x="30.63" y="98.42" width="6.04" height="9.53" transform="translate(-72.76 124.53) rotate(-83.28)"/><path class="cls-1" d="M31.62,39.48a47,47,0,0,1,9.72-2.36l.88,5.75a52.37,52.37,0,0,0-8.68,2Z"/><path class="cls-2" d="M89.88,10.59,71.81.46a3.5,3.5,0,0,0-3.46,0,3.56,3.56,0,0,0-1.63,3l-.08,38.59h6.27L73.63,23l15.85-6.49a3.63,3.63,0,0,0,2.24-3A3.31,3.31,0,0,0,89.88,10.59Z"/><ellipse class="cls-2" cx="11.38" cy="97.31" rx="11.38" ry="11.34"/></g></g></svg>