<?xml version="1.0" encoding="utf-8"?>
<!-- Generator: Adobe Illustrator 23.0.3, SVG Export Plug-In . SVG Version: 6.00 Build 0)  -->
<svg version="1.1" id="Layer_1" xmlns="http://www.w3.org/2000/svg" xmlns:xlink="http://www.w3.org/1999/xlink" x="0px" y="0px"
	 viewBox="0 0 200 200" style="enable-background:new 0 0 200 200;" xml:space="preserve">
<style type="text/css">
	.st0{fill:#CCCCCC;}
	.st1{fill:#FFFFFF;stroke:#CCCCCC;stroke-miterlimit:10;}
	.st2{fill:#FFFFFF;}
	.st3{fill:#FFFFFF;stroke:#CCCCCC;stroke-width:0.5;stroke-miterlimit:10;}
	.st4{fill:#FFFFFF;stroke:#FFFFFF;stroke-width:0.5;stroke-miterlimit:10;}
</style>
<g>
	<circle class="st0" cx="101" cy="100" r="100"/>
</g>
<g>
	<g>
		<path class="st2" d="M110.66,149.93c-3.17-0.24-6.12-0.45-9.21-0.65l0.59-6.7c3.36,0.21,6.36,0.43,8.94,0.64
			c0.27,0.12,0.6,0.18,0.95,0.18c0.16,0,0.33-0.01,0.49-0.04v6.56H110.66z"/>
		<path class="st0" d="M102.49,143.12c3.14,0.2,5.95,0.4,8.37,0.6c0.32,0.12,0.67,0.19,1.06,0.19v5.53h-1.23
			c-2.95-0.23-5.81-0.43-8.71-0.61L102.49,143.12 M101.58,142.06l-0.68,7.7c3.63,0.23,6.81,0.45,9.76,0.68c0.68,0,1.36,0,2.27,0
			v-7.7c-0.34,0.11-0.68,0.17-0.99,0.17s-0.6-0.06-0.82-0.17C108.39,142.51,105.21,142.28,101.58,142.06L101.58,142.06z"/>
	</g>
	<g>
		<path class="st2" d="M120.24,141.97c3.26-0.72,6.05-1.99,8.13-3.71l4.09,5.25c-3.39,2.4-7.12,4.09-10.85,4.91L120.24,141.97z"/>
		<path class="st0" d="M128.28,138.96l3.46,4.43c-3.07,2.1-6.4,3.61-9.75,4.41l-1.16-5.46C123.75,141.64,126.3,140.49,128.28,138.96
			 M128.43,137.53c-2.25,2.02-5.41,3.37-8.79,4.05l1.58,7.42c4.51-0.9,8.57-2.92,11.95-5.4L128.43,137.53L128.43,137.53z"/>
	</g>
	<g>
		<path class="st2" d="M105.08,69.19c3.36-0.22,6.94-0.42,10.5-0.42h0.4v6.65h-0.18c-3.4,0-6.74,0.19-10.14,0.42L105.08,69.19z"/>
		<path class="st0" d="M115.49,69.27v5.65c-3.13,0.01-6.22,0.18-9.36,0.39l-0.5-5.65C108.8,69.45,112.15,69.28,115.49,69.27
			 M116.49,68.27h-0.9c-3.83,0-7.66,0.22-11.04,0.45l0.68,7.65c3.38-0.22,6.99-0.45,10.59-0.45h0.68V68.27L116.49,68.27z"/>
	</g>
	<g>
		<path class="st2" d="M118.95,111.79c-1.51-0.16-3.33-0.16-5.39-0.16c-1.62-0.21-3.26-0.22-5.12-0.22l0.19-6.59
			c1.84,0.17,3.52,0.17,5.15,0.17c2.01,0.2,3.88,0.22,5.56,0.23L118.95,111.79z"/>
		<path class="st0" d="M109.12,105.35c1.64,0.13,3.15,0.13,4.62,0.13c1.85,0.18,3.53,0.22,5.07,0.22l-0.33,5.54
			c-1.41-0.12-3.04-0.12-4.86-0.12c-1.53-0.19-3.02-0.22-4.67-0.22L109.12,105.35 M108.15,104.25l-0.23,7.65
			c2.03,0,3.83,0,5.64,0.22c2.25,0,4.28,0,5.86,0.22l0.45-7.65c-0.01,0-0.02,0-0.04,0c-1.79,0-3.81,0-6.05-0.22
			C111.98,104.48,110.18,104.48,108.15,104.25L108.15,104.25z"/>
	</g>
	<g>
		<path class="st2" d="M99.35,110.92c-4.34-0.25-8.2-0.91-10.89-1.44l1.57-6.66c2.35,0.53,5.77,1.19,9.9,1.45L99.35,110.92z"/>
		<path class="st0" d="M90.41,103.42c2.24,0.49,5.32,1.06,8.99,1.32l-0.5,5.66c-3.85-0.25-7.29-0.82-9.82-1.3L90.41,103.42
			 M89.66,102.23l-1.8,7.65c3.38,0.67,7.44,1.35,11.95,1.57l0.68-7.65C96.2,103.58,92.59,102.9,89.66,102.23L89.66,102.23z"/>
	</g>
	<g>
		<path class="st2" d="M79.73,106.73c-4.78-2.37-7.74-5.22-9.25-8.93l6.07-2.35c0.98,2.06,2.88,3.74,5.92,5.22L79.73,106.73z"/>
		<path class="st0" d="M76.31,96.08c1.03,1.88,2.81,3.44,5.51,4.83l-2.33,5.14c-4.19-2.16-6.88-4.72-8.35-7.97L76.31,96.08
			 M76.82,94.81l-6.99,2.7c1.58,4.27,4.96,7.42,10.14,9.89l3.16-6.97C79.75,98.86,77.72,97.06,76.82,94.81L76.82,94.81z"/>
	</g>
	<g>
		<path class="st2" d="M133.09,117.96c-1.49-2.14-3.72-3.85-6.5-5l2.15-6.05c4.22,1.5,7.67,4.09,10.04,7.53L133.09,117.96z"/>
		<path class="st0" d="M129.04,107.55c3.73,1.42,6.82,3.73,9.02,6.74l-4.84,3c-1.45-1.92-3.5-3.5-6.01-4.61L129.04,107.55
			 M128.43,106.28l-2.48,6.97c2.93,1.12,5.41,2.92,6.99,5.4l6.54-4.05C137,110.77,133.17,107.85,128.43,106.28L128.43,106.28z"/>
	</g>
	<g>
		<path class="st2" d="M133.38,132.85c1.25-2.43,1.86-4.88,1.86-7.46v-0.67l6.66-0.59v1.25c0,3.65-0.96,7.28-2.85,10.78
			L133.38,132.85z"/>
		<path class="st0" d="M141.41,124.68v0.71c0,3.41-0.86,6.8-2.54,10.08l-4.82-2.82c1.15-2.36,1.71-4.75,1.71-7.26v-0.21
			L141.41,124.68 M142.41,123.59l-7.66,0.67c0,0.45,0,0.9,0,1.12c0,2.7-0.68,5.17-2.03,7.65l6.54,3.82
			c2.03-3.6,3.16-7.42,3.16-11.47C142.41,124.71,142.41,124.04,142.41,123.59L142.41,123.59z"/>
	</g>
	<g>
		<path class="st2" d="M69.71,87.43c0.01-0.05,0.02-0.1,0.04-0.15c0.06-0.22,0.12-0.47,0.13-0.74c0.85-3.77,3.16-6.95,7.04-9.7
			l3.73,5.48c-2.55,1.93-3.89,3.75-4.31,5.86c-0.01,0.14-0.07,0.3-0.1,0.39c0,0.01-0.01,0.02-0.01,0.03L69.71,87.43z"/>
		<path class="st0" d="M76.79,77.55l3.17,4.67c-2.39,1.89-3.68,3.71-4.12,5.82l-5.53-1c0.03-0.13,0.05-0.27,0.05-0.42
			C71.18,83.12,73.28,80.15,76.79,77.55 M77.04,76.14c-4.28,2.92-6.76,6.3-7.66,10.34c0,0.45-0.23,0.9-0.23,1.35l7.44,1.35
			c0-0.22,0.23-0.67,0.23-0.9c0.45-2.25,2.03-4.05,4.51-5.85L77.04,76.14L77.04,76.14z"/>
	</g>
	<g>
		
			<rect x="84.26" y="139" transform="matrix(0.1171 -0.9931 0.9931 0.1171 -65.957 214.4539)" class="st2" width="6.75" height="10.65"/>
		<path class="st0" d="M83.18,140.9l4.79,0.56l4.79,0.56l-0.67,5.71l-9.58-1.12L83.18,140.9 M82.3,139.79l-0.91,7.7
			c3.86,0.45,7.71,0.91,11.57,1.36l0.91-7.7C90.01,140.7,86.16,140.25,82.3,139.79L82.3,139.79z"/>
	</g>
	<g>
		<path class="st2" d="M85.34,72.84c2.88-1.1,6.37-1.94,10.89-2.64l0.98,6.44c-3.51,0.59-6.88,1.22-9.72,2.24L85.34,72.84z"/>
		<path class="st0" d="M95.81,70.76l0.83,5.46c-3.17,0.54-6.21,1.12-8.85,2.02l-1.82-5.1C88.61,72.18,91.85,71.4,95.81,70.76
			 M96.65,69.62c-4.51,0.67-8.57,1.57-11.95,2.92l2.48,6.97c2.93-1.12,6.54-1.8,10.59-2.47L96.65,69.62L96.65,69.62z"/>
	</g>
	<path class="st2" d="M149.91,41.39l-20.19-11.32c-1.13-0.68-2.72-0.68-3.86,0s-1.82,2.04-1.82,3.39l-0.09,43.1h7l0.81-21.37
		l17.7-7.24c1.36-0.45,2.27-1.81,2.5-3.39C151.95,43.43,151.27,42.07,149.91,41.39z"/>
	<ellipse class="st2" cx="62.75" cy="137.76" rx="12.71" ry="12.67"/>
</g>
</svg>
