<svg xmlns="http://www.w3.org/2000/svg" viewBox="0 0 46.5 100.38"><defs><style>.cls-1{fill:#82b1ff;}.cls-2{fill:#448aff;}</style></defs><title>Asset 4</title><g id="Layer_2" data-name="Layer 2"><g id="Layer_4" data-name="Layer 4"><path class="cls-1" d="M24.51,99.36V97.28H14.65a1,1,0,0,1,0-2.07h9.86l-1-6.21H17.33a1,1,0,1,1,0-2.07h6.14V81.75H17.33a1,1,0,1,1,0-2.07h6.14V74.51H17.33a1,1,0,1,1,0-2.07h6.14V66.23H13.62a1,1,0,1,1,0-2.07h9.85V59H17.33a1,1,0,1,1,0-2.07h6.14V50.71H17.33a1,1,0,1,1,0-2.07h6.14V43.46H17.33a1,1,0,1,1,0-2.07h6.14V36.22H13.62a1,1,0,1,1,0-2.07h9.85V27.94H17.33a1,1,0,1,1,0-2.07h6.14V20.7H17.33a1,1,0,1,1,0-2.07h6.14V12.42H17.33a1,1,0,1,1,0-2.07h6.14l1-5.18H14.65a1,1,0,0,1,0-2.07h9.86V1a1,1,0,0,0-1-1H1A1,1,0,0,0,0,1V99.36a1,1,0,0,0,1,1H23.49A1,1,0,0,0,24.51,99.36Z"/><rect class="cls-2" x="31.83" y="98.13" width="14.67" height="2.25" rx="1.13"/><rect class="cls-2" x="31.83" width="14.67" height="2.25" rx="1.13"/><rect class="cls-2" x="38.26" y="13.01" width="1.8" height="74.37"/><path class="cls-2" d="M33.27,84.2H45.06a1.08,1.08,0,0,1,1,1.55l-5.9,11.79a1.07,1.07,0,0,1-1.92,0L32.31,85.75A1.07,1.07,0,0,1,33.27,84.2Z"/><path class="cls-2" d="M45.06,16.18H33.27a1.07,1.07,0,0,1-1-1.55L38.2,2.84a1.07,1.07,0,0,1,1.92,0L46,14.63A1.08,1.08,0,0,1,45.06,16.18Z"/></g></g></svg>