<?xml version="1.0" encoding="utf-8"?>
<!-- Generator: Adobe Illustrator 23.0.3, SVG Export Plug-In . SVG Version: 6.00 Build 0)  -->
<svg version="1.1" id="Layer_1" xmlns="http://www.w3.org/2000/svg" xmlns:xlink="http://www.w3.org/1999/xlink" x="0px" y="0px"
	 viewBox="0 0 200 200" style="enable-background:new 0 0 200 200;" xml:space="preserve">
<style type="text/css">
	.st0{fill:#CCCCCC;}
	.st1{fill:#FFFFFF;stroke:#CCCCCC;stroke-miterlimit:10;}
	.st2{fill:#FFFFFF;}
	.st3{fill:#FFFFFF;stroke:#CCCCCC;stroke-width:0.5;stroke-miterlimit:10;}
	.st4{fill:#FFFFFF;stroke:#FFFFFF;stroke-width:0.5;stroke-miterlimit:10;}
</style>
<g>
	<circle class="st0" cx="100" cy="100" r="100"/>
</g>
<g>
	<path class="st1" d="M51.53,124.22 M52.57,124.16 M154.42,68.53c1.18,0.75,2.86,2.36,3.44,3.65c0.91,2-1.07,2.58-2.71,1.89
		c0.04,0.16,0.06,0.31,0.09,0.47c0.21,1.49-0.21,2.84-1.81,4.02c-2.7,1.99-8.08-1.53-9.57-2.51c-3.98-2.58-7.9-5.41-11.68-8.28
		c3.39,4.55,7.84,10.05,10.36,15.06c2.1,4.19-2.31,9.22-7,7.44c-4.27-1.62-9.27-5.23-13.01-7.98c3.62,4.87,6.7,9.12,8.28,12.27
		c2.1,4.19-2.31,9.22-7,7.44c-4.26-1.61-9.26-5.23-12.99-7.97c3.61,4.86,6.69,9.11,8.27,12.25c2.1,4.19-2.31,9.22-7,7.44
		c-4.27-1.62-9.27-5.23-13.01-7.98c3.62,4.87,6.7,9.12,8.28,12.26c2.1,4.19-2.31,9.22-7,7.44c-2.08-0.79-4.72-2.3-7.5-4.13
		c-1.81-1.19-3.68-2.51-5.51-3.86c3.62,4.87,6.7,9.13,8.28,12.27c2.1,4.19-2.31,9.22-7,7.44c-2.08-0.79-4.72-2.3-7.5-4.13
		c-1.79-1.18-3.64-2.48-5.45-3.81c3.61,4.85,6.65,9.1,8.23,12.23c2.1,4.19-2.31,9.22-7,7.44c-2.09-0.79-5.01-2.54-8.07-4.6
		c-1.72-1.16-3.5-2.42-5.2-3.67l0,0c2.6,2.86,5.42,5.72,8.19,8.34c3.22,3.05,1.35,5.24-2.55,3.08c-2.99-1.66-10.22-7.35-16.07-13.4
		c-5.36-5.53-9.73-11.49-9.24-15.35c0.46-3.63,4.67-4.82,7.94-2.63c2.08,1.39,7.26,5.46,12.54,9.61c1.6,1.26,3.21,2.53,4.71,3.7
		c-1.22-1.61-2.44-3.21-3.65-4.82c-3.63-4.81-7.14-9.67-9.44-14.28c-2.19-4.38,2.26-8.94,6.98-6.3c5.23,3.14,12.51,9.51,17.86,13.69
		c-0.58-0.76-1.16-1.53-1.74-2.3c-4.27-5.63-8.66-11.4-11.37-16.82c-2.19-4.38,2.26-8.94,6.98-6.3c1.5,0.84,7.25,5.36,13.13,9.98
		c1.61,1.27,3.24,2.54,4.74,3.72c-0.58-0.77-1.16-1.54-1.75-2.31c-4.27-5.63-8.66-11.4-11.37-16.82c-2.19-4.38,2.26-8.94,6.98-6.3
		c1.5,0.84,7.25,5.36,13.13,9.98c1.61,1.27,3.23,2.54,4.73,3.72c-0.58-0.76-1.16-1.53-1.74-2.3c-4.27-5.63-8.66-11.4-11.37-16.82
		c-2.19-4.38,2.26-8.94,6.98-6.3c1.5,0.84,7.25,5.36,13.13,9.98c1.6,1.26,3.22,2.53,4.72,3.7c-0.57-0.76-1.15-1.52-1.73-2.28
		c-4.27-5.63-8.66-11.4-11.37-16.82c-2.19-4.38,2.26-8.94,6.98-6.3c1.5,0.84,7.25,5.36,13.13,9.98c1.61,1.27,3.23,2.54,4.74,3.72
		c-4.55-6.03-9.75-12.4-13.12-19.13c-2.19-4.38,2.26-8.94,6.98-6.3c1.48,0.83,7.51,5.57,13.56,10.34c1.61,1.27,3.23,2.54,4.73,3.72
		c-1.15-1.42-2.39-2.89-3.7-4.38c-3.5-3.98-7.53-8.14-11.95-12.07c-2.88-2.56,0.56-7.36,4.2-4.82c3.08,2.14,8.39,7.39,13.36,12.86
		L154.42,68.53z"/>
</g>
</svg>
