<svg xmlns="http://www.w3.org/2000/svg" viewBox="0 0 105.79 105.2"><defs><style>.cls-1{fill:#82b1ff;}.cls-2{fill:#448aff;}</style></defs><title>Asset 3</title><g id="Layer_2" data-name="Layer 2"><g id="Layer_2-2" data-name="Layer 2"><path class="cls-1" d="M104.48,28c1.34,1.34-.44,2.82-2.42,1.7,0,.14,0,.27.08.42a3.55,3.55,0,0,1-1.62,3.6c-2.42,1.78-6.38-.69-7.71-1.56-3.56-2.31-7.07-4.85-10.46-7.42,3,4.08,7,9,9.28,13.49,1.88,3.75-2.07,8.25-6.27,6.66-3.82-1.45-8.3-4.69-11.65-7.15a89.24,89.24,0,0,1,7.42,11C83,52.46,79.06,57,74.86,55.37c-3.81-1.44-8.29-4.68-11.63-7.14a88.73,88.73,0,0,1,7.4,11c1.88,3.75-2.06,8.25-6.26,6.66-3.83-1.45-8.3-4.68-11.65-7.14a88.62,88.62,0,0,1,7.41,11C62,73.44,58.06,78,53.87,76.35a37.15,37.15,0,0,1-6.72-3.7c-1.62-1.06-3.29-2.24-4.93-3.45a88.6,88.6,0,0,1,7.41,11c1.88,3.75-2.07,8.26-6.27,6.66a37.32,37.32,0,0,1-6.71-3.69c-1.6-1.06-3.26-2.22-4.88-3.41a88.34,88.34,0,0,1,7.37,11c1.88,3.75-2.07,8.25-6.27,6.66a41.38,41.38,0,0,1-7.22-4.12c-1.54-1-3.14-2.17-4.66-3.29h0c2.33,2.56,6.38,6.26,8.86,8.61,2.88,2.73,1.21,4.69-2.28,2.76-2.68-1.49-10.68-7.72-15.91-13.14-4.8-5-8.72-10.29-8.28-13.74.41-3.25,4.18-4.32,7.11-2.36C12.35,73.32,17,77,21.72,80.68L25.93,84l-3.26-4.32a86.28,86.28,0,0,1-8.45-12.78c-2-3.92,2-8,6.24-5.64,4.69,2.81,11.2,8.51,16,12.26-.52-.69-1-1.37-1.55-2.06-3.83-5-7.76-10.21-10.18-15.06-2-3.92,2-8,6.25-5.64,1.34.75,6.49,4.8,11.75,8.93L47,63c-.52-.69-1-1.38-1.56-2.06-3.83-5.05-7.76-10.21-10.18-15.06-2-3.92,2-8,6.25-5.64,1.34.75,6.49,4.8,11.75,8.93,1.44,1.14,2.89,2.28,4.24,3.33L55.9,50.45c-3.82-5-7.75-10.2-10.18-15.06-2-3.92,2-8,6.25-5.64,1.34.76,6.49,4.8,11.75,8.94C65.15,39.82,66.61,41,68,42L66.4,40c-3.82-5-7.75-10.21-10.18-15.06-2-3.92,2-8,6.25-5.64,1.34.75,6.49,4.8,11.75,8.94l4.25,3.33c-4.08-5.4-8.73-11.1-11.75-17.13-2-3.92,2-8,6.25-5.64,1.33.74,6.72,5,12.14,9.26l4.23,3.33c-1-1.27-2.14-2.59-3.31-3.92-3.13-3.57-6.7-6.93-11-11.58a2.68,2.68,0,0,1,3.53-4C83.25,6.46,102.82,26.32,104.48,28Z"/><rect class="cls-2" x="86.56" y="-4.62" width="6.49" height="40.71" rx="2" transform="translate(15.73 68.89) rotate(-45.6)"/><rect class="cls-2" x="12.78" y="69" width="6.49" height="40.84" rx="2" transform="translate(-59.07 38.3) rotate(-45.6)"/></g></g></svg>