<svg xmlns="http://www.w3.org/2000/svg" viewBox="0 0 90.78 81.91"><defs><style>.cls-1{fill:#82b1ff;}.cls-2{font-size:25px;fill:#2979ff;font-family:Montserrat-BlackItalic, Montserrat;font-weight:800;font-style:italic;}</style></defs><title>Asset 6</title><g id="Layer_2" data-name="Layer 2"><g id="Layer_1-2" data-name="Layer 1"><path class="cls-1" d="M90.72,78.05,80,33.51a2.89,2.89,0,0,0-2.47-2H58.88c2.84-3,4.59-8.33,4.59-12.93C63.47,8.58,55.36,0,45.39,0S27.31,8.82,27.31,18.78c0,4.61,1.74,9.73,4.59,12.7h-17a3,3,0,0,0-2.51,2L.08,78.45a3,3,0,0,0,.37,2.26,2.66,2.66,0,0,0,1.77,1.2H88.55c.68,0,1.32-.88,1.74-1.41A3.57,3.57,0,0,0,90.72,78.05ZM45.39,8a9.2,9.2,0,1,1-9.19,9.2A9.21,9.21,0,0,1,45.39,8Z"/><text class="cls-2" transform="translate(25.56 66.21)">lbs</text></g></g></svg>