<?xml version="1.0" encoding="utf-8"?>
<!-- Generator: Adobe Illustrator 23.0.3, SVG Export Plug-In . SVG Version: 6.00 Build 0)  -->
<svg version="1.1" id="Layer_1" xmlns="http://www.w3.org/2000/svg" xmlns:xlink="http://www.w3.org/1999/xlink" x="0px" y="0px"
	 viewBox="0 0 200 200" style="enable-background:new 0 0 200 200;" xml:space="preserve">
<style type="text/css">
	.st0{fill:#CCCCCC;}
	.st1{fill:#FFFFFF;stroke:#CCCCCC;stroke-miterlimit:10;}
	.st2{fill:#FFFFFF;}
	.st3{fill:#FFFFFF;stroke:#CCCCCC;stroke-width:0.5;stroke-miterlimit:10;}
	.st4{fill:#FFFFFF;stroke:#FFFFFF;stroke-width:0.5;stroke-miterlimit:10;}
</style>
<g>
	<circle class="st0" cx="100" cy="100" r="100"/>
</g>
<path class="st2" d="M151.7,134.5l-11.98-49.82c-0.26-1.12-1.6-2.27-2.76-2.27h-20.87c3.18-3.32,5.13-9.32,5.13-14.46
	c0-11.15-9.07-20.75-20.22-20.75c-11.15,0-20.22,9.86-20.22,21.01c0,5.15,1.95,10.88,5.13,14.2H66.94c-1.12,0-2.5,1.14-2.8,2.22
	l-13.82,50.31c-0.2,0.75-0.05,1.91,0.42,2.53c0.47,0.61,1.2,1.34,1.98,1.34h96.55c0.76,0,1.48-0.98,1.95-1.57
	C151.7,136.64,151.87,135.24,151.7,134.5z M101,56.62c5.66,0,10.27,4.61,10.27,10.27S106.66,77.16,101,77.16
	c-5.66,0-10.27-4.61-10.27-10.27S95.34,56.62,101,56.62z"/>
</svg>
